<?xml version="1.0" encoding="utf-8" standalone="no"?>
<!DOCTYPE svg PUBLIC "-//W3C//DTD SVG 1.1//EN"
  "http://www.w3.org/Graphics/SVG/1.1/DTD/svg11.dtd">
<svg xmlns:xlink="http://www.w3.org/1999/xlink" width="1152pt" height="576pt" viewBox="0 0 1152 576" xmlns="http://www.w3.org/2000/svg" version="1.1">
 <metadata>
  <rdf:RDF xmlns:dc="http://purl.org/dc/elements/1.1/" xmlns:cc="http://creativecommons.org/ns#" xmlns:rdf="http://www.w3.org/1999/02/22-rdf-syntax-ns#">
   <cc:Work>
    <dc:type rdf:resource="http://purl.org/dc/dcmitype/StillImage"/>
    <dc:date>2024-04-08T18:28:19.328818</dc:date>
    <dc:format>image/svg+xml</dc:format>
    <dc:creator>
     <cc:Agent>
      <dc:title>Matplotlib v3.5.3, https://matplotlib.org/</dc:title>
     </cc:Agent>
    </dc:creator>
   </cc:Work>
  </rdf:RDF>
 </metadata>
 <defs>
  <style type="text/css">*{stroke-linejoin: round; stroke-linecap: butt}</style>
 </defs>
 <g id="figure_1">
  <g id="patch_1">
   <path d="M 0 576 
L 1152 576 
L 1152 0 
L 0 0 
z
" style="fill: #ffffff"/>
  </g>
  <g id="axes_1">
   <g id="patch_2">
    <path d="M 144 512.64 
L 1036.8 512.64 
L 1036.8 69.12 
L 144 69.12 
z
" style="fill: #ffffff"/>
   </g>
   <g id="matplotlib.axis_1">
    <g id="xtick_1">
     <g id="line2d_1">
      <defs>
       <path id="m1513a43ce0" d="M 0 0 
L 0 3.5 
" style="stroke: #000000; stroke-width: 0.8"/>
      </defs>
      <g>
       <use xlink:href="#m1513a43ce0" x="144" y="512.64" style="stroke: #000000; stroke-width: 0.8"/>
      </g>
     </g>
     <g id="text_1">
      <!-- 0 -->
      <g transform="translate(136.365 537.87625)scale(0.24 -0.24)">
       <defs>
        <path id="DejaVuSans-30" d="M 2034 4250 
Q 1547 4250 1301 3770 
Q 1056 3291 1056 2328 
Q 1056 1369 1301 889 
Q 1547 409 2034 409 
Q 2525 409 2770 889 
Q 3016 1369 3016 2328 
Q 3016 3291 2770 3770 
Q 2525 4250 2034 4250 
z
M 2034 4750 
Q 2819 4750 3233 4129 
Q 3647 3509 3647 2328 
Q 3647 1150 3233 529 
Q 2819 -91 2034 -91 
Q 1250 -91 836 529 
Q 422 1150 422 2328 
Q 422 3509 836 4129 
Q 1250 4750 2034 4750 
z
" transform="scale(0.015625)"/>
       </defs>
       <use xlink:href="#DejaVuSans-30"/>
      </g>
     </g>
    </g>
    <g id="xtick_2">
     <g id="line2d_2">
      <g>
       <use xlink:href="#m1513a43ce0" x="292.8" y="512.64" style="stroke: #000000; stroke-width: 0.8"/>
      </g>
     </g>
     <g id="text_2">
      <!-- 50 -->
      <g transform="translate(277.53 537.87625)scale(0.24 -0.24)">
       <defs>
        <path id="DejaVuSans-35" d="M 691 4666 
L 3169 4666 
L 3169 4134 
L 1269 4134 
L 1269 2991 
Q 1406 3038 1543 3061 
Q 1681 3084 1819 3084 
Q 2600 3084 3056 2656 
Q 3513 2228 3513 1497 
Q 3513 744 3044 326 
Q 2575 -91 1722 -91 
Q 1428 -91 1123 -41 
Q 819 9 494 109 
L 494 744 
Q 775 591 1075 516 
Q 1375 441 1709 441 
Q 2250 441 2565 725 
Q 2881 1009 2881 1497 
Q 2881 1984 2565 2268 
Q 2250 2553 1709 2553 
Q 1456 2553 1204 2497 
Q 953 2441 691 2322 
L 691 4666 
z
" transform="scale(0.015625)"/>
       </defs>
       <use xlink:href="#DejaVuSans-35"/>
       <use xlink:href="#DejaVuSans-30" x="63.623047"/>
      </g>
     </g>
    </g>
    <g id="xtick_3">
     <g id="line2d_3">
      <g>
       <use xlink:href="#m1513a43ce0" x="441.6" y="512.64" style="stroke: #000000; stroke-width: 0.8"/>
      </g>
     </g>
     <g id="text_3">
      <!-- 100 -->
      <g transform="translate(418.695 537.87625)scale(0.24 -0.24)">
       <defs>
        <path id="DejaVuSans-31" d="M 794 531 
L 1825 531 
L 1825 4091 
L 703 3866 
L 703 4441 
L 1819 4666 
L 2450 4666 
L 2450 531 
L 3481 531 
L 3481 0 
L 794 0 
L 794 531 
z
" transform="scale(0.015625)"/>
       </defs>
       <use xlink:href="#DejaVuSans-31"/>
       <use xlink:href="#DejaVuSans-30" x="63.623047"/>
       <use xlink:href="#DejaVuSans-30" x="127.246094"/>
      </g>
     </g>
    </g>
    <g id="xtick_4">
     <g id="line2d_4">
      <g>
       <use xlink:href="#m1513a43ce0" x="590.4" y="512.64" style="stroke: #000000; stroke-width: 0.8"/>
      </g>
     </g>
     <g id="text_4">
      <!-- 150 -->
      <g transform="translate(567.495 537.87625)scale(0.24 -0.24)">
       <use xlink:href="#DejaVuSans-31"/>
       <use xlink:href="#DejaVuSans-35" x="63.623047"/>
       <use xlink:href="#DejaVuSans-30" x="127.246094"/>
      </g>
     </g>
    </g>
    <g id="xtick_5">
     <g id="line2d_5">
      <g>
       <use xlink:href="#m1513a43ce0" x="739.2" y="512.64" style="stroke: #000000; stroke-width: 0.8"/>
      </g>
     </g>
     <g id="text_5">
      <!-- 200 -->
      <g transform="translate(716.295 537.87625)scale(0.24 -0.24)">
       <defs>
        <path id="DejaVuSans-32" d="M 1228 531 
L 3431 531 
L 3431 0 
L 469 0 
L 469 531 
Q 828 903 1448 1529 
Q 2069 2156 2228 2338 
Q 2531 2678 2651 2914 
Q 2772 3150 2772 3378 
Q 2772 3750 2511 3984 
Q 2250 4219 1831 4219 
Q 1534 4219 1204 4116 
Q 875 4013 500 3803 
L 500 4441 
Q 881 4594 1212 4672 
Q 1544 4750 1819 4750 
Q 2544 4750 2975 4387 
Q 3406 4025 3406 3419 
Q 3406 3131 3298 2873 
Q 3191 2616 2906 2266 
Q 2828 2175 2409 1742 
Q 1991 1309 1228 531 
z
" transform="scale(0.015625)"/>
       </defs>
       <use xlink:href="#DejaVuSans-32"/>
       <use xlink:href="#DejaVuSans-30" x="63.623047"/>
       <use xlink:href="#DejaVuSans-30" x="127.246094"/>
      </g>
     </g>
    </g>
    <g id="xtick_6">
     <g id="line2d_6">
      <g>
       <use xlink:href="#m1513a43ce0" x="888" y="512.64" style="stroke: #000000; stroke-width: 0.8"/>
      </g>
     </g>
     <g id="text_6">
      <!-- 250 -->
      <g transform="translate(865.095 537.87625)scale(0.24 -0.24)">
       <use xlink:href="#DejaVuSans-32"/>
       <use xlink:href="#DejaVuSans-35" x="63.623047"/>
       <use xlink:href="#DejaVuSans-30" x="127.246094"/>
      </g>
     </g>
    </g>
    <g id="xtick_7">
     <g id="line2d_7">
      <g>
       <use xlink:href="#m1513a43ce0" x="1036.8" y="512.64" style="stroke: #000000; stroke-width: 0.8"/>
      </g>
     </g>
     <g id="text_7">
      <!-- 300 -->
      <g transform="translate(1013.895 537.87625)scale(0.24 -0.24)">
       <defs>
        <path id="DejaVuSans-33" d="M 2597 2516 
Q 3050 2419 3304 2112 
Q 3559 1806 3559 1356 
Q 3559 666 3084 287 
Q 2609 -91 1734 -91 
Q 1441 -91 1130 -33 
Q 819 25 488 141 
L 488 750 
Q 750 597 1062 519 
Q 1375 441 1716 441 
Q 2309 441 2620 675 
Q 2931 909 2931 1356 
Q 2931 1769 2642 2001 
Q 2353 2234 1838 2234 
L 1294 2234 
L 1294 2753 
L 1863 2753 
Q 2328 2753 2575 2939 
Q 2822 3125 2822 3475 
Q 2822 3834 2567 4026 
Q 2313 4219 1838 4219 
Q 1578 4219 1281 4162 
Q 984 4106 628 3988 
L 628 4550 
Q 988 4650 1302 4700 
Q 1616 4750 1894 4750 
Q 2613 4750 3031 4423 
Q 3450 4097 3450 3541 
Q 3450 3153 3228 2886 
Q 3006 2619 2597 2516 
z
" transform="scale(0.015625)"/>
       </defs>
       <use xlink:href="#DejaVuSans-33"/>
       <use xlink:href="#DejaVuSans-30" x="63.623047"/>
       <use xlink:href="#DejaVuSans-30" x="127.246094"/>
      </g>
     </g>
    </g>
    <g id="text_8">
     <!-- epochs -->
     <g transform="translate(547.60125 565.10375)scale(0.24 -0.24)">
      <defs>
       <path id="DejaVuSans-65" d="M 3597 1894 
L 3597 1613 
L 953 1613 
Q 991 1019 1311 708 
Q 1631 397 2203 397 
Q 2534 397 2845 478 
Q 3156 559 3463 722 
L 3463 178 
Q 3153 47 2828 -22 
Q 2503 -91 2169 -91 
Q 1331 -91 842 396 
Q 353 884 353 1716 
Q 353 2575 817 3079 
Q 1281 3584 2069 3584 
Q 2775 3584 3186 3129 
Q 3597 2675 3597 1894 
z
M 3022 2063 
Q 3016 2534 2758 2815 
Q 2500 3097 2075 3097 
Q 1594 3097 1305 2825 
Q 1016 2553 972 2059 
L 3022 2063 
z
" transform="scale(0.015625)"/>
       <path id="DejaVuSans-70" d="M 1159 525 
L 1159 -1331 
L 581 -1331 
L 581 3500 
L 1159 3500 
L 1159 2969 
Q 1341 3281 1617 3432 
Q 1894 3584 2278 3584 
Q 2916 3584 3314 3078 
Q 3713 2572 3713 1747 
Q 3713 922 3314 415 
Q 2916 -91 2278 -91 
Q 1894 -91 1617 61 
Q 1341 213 1159 525 
z
M 3116 1747 
Q 3116 2381 2855 2742 
Q 2594 3103 2138 3103 
Q 1681 3103 1420 2742 
Q 1159 2381 1159 1747 
Q 1159 1113 1420 752 
Q 1681 391 2138 391 
Q 2594 391 2855 752 
Q 3116 1113 3116 1747 
z
" transform="scale(0.015625)"/>
       <path id="DejaVuSans-6f" d="M 1959 3097 
Q 1497 3097 1228 2736 
Q 959 2375 959 1747 
Q 959 1119 1226 758 
Q 1494 397 1959 397 
Q 2419 397 2687 759 
Q 2956 1122 2956 1747 
Q 2956 2369 2687 2733 
Q 2419 3097 1959 3097 
z
M 1959 3584 
Q 2709 3584 3137 3096 
Q 3566 2609 3566 1747 
Q 3566 888 3137 398 
Q 2709 -91 1959 -91 
Q 1206 -91 779 398 
Q 353 888 353 1747 
Q 353 2609 779 3096 
Q 1206 3584 1959 3584 
z
" transform="scale(0.015625)"/>
       <path id="DejaVuSans-63" d="M 3122 3366 
L 3122 2828 
Q 2878 2963 2633 3030 
Q 2388 3097 2138 3097 
Q 1578 3097 1268 2742 
Q 959 2388 959 1747 
Q 959 1106 1268 751 
Q 1578 397 2138 397 
Q 2388 397 2633 464 
Q 2878 531 3122 666 
L 3122 134 
Q 2881 22 2623 -34 
Q 2366 -91 2075 -91 
Q 1284 -91 818 406 
Q 353 903 353 1747 
Q 353 2603 823 3093 
Q 1294 3584 2113 3584 
Q 2378 3584 2631 3529 
Q 2884 3475 3122 3366 
z
" transform="scale(0.015625)"/>
       <path id="DejaVuSans-68" d="M 3513 2113 
L 3513 0 
L 2938 0 
L 2938 2094 
Q 2938 2591 2744 2837 
Q 2550 3084 2163 3084 
Q 1697 3084 1428 2787 
Q 1159 2491 1159 1978 
L 1159 0 
L 581 0 
L 581 4863 
L 1159 4863 
L 1159 2956 
Q 1366 3272 1645 3428 
Q 1925 3584 2291 3584 
Q 2894 3584 3203 3211 
Q 3513 2838 3513 2113 
z
" transform="scale(0.015625)"/>
       <path id="DejaVuSans-73" d="M 2834 3397 
L 2834 2853 
Q 2591 2978 2328 3040 
Q 2066 3103 1784 3103 
Q 1356 3103 1142 2972 
Q 928 2841 928 2578 
Q 928 2378 1081 2264 
Q 1234 2150 1697 2047 
L 1894 2003 
Q 2506 1872 2764 1633 
Q 3022 1394 3022 966 
Q 3022 478 2636 193 
Q 2250 -91 1575 -91 
Q 1294 -91 989 -36 
Q 684 19 347 128 
L 347 722 
Q 666 556 975 473 
Q 1284 391 1588 391 
Q 1994 391 2212 530 
Q 2431 669 2431 922 
Q 2431 1156 2273 1281 
Q 2116 1406 1581 1522 
L 1381 1569 
Q 847 1681 609 1914 
Q 372 2147 372 2553 
Q 372 3047 722 3315 
Q 1072 3584 1716 3584 
Q 2034 3584 2315 3537 
Q 2597 3491 2834 3397 
z
" transform="scale(0.015625)"/>
      </defs>
      <use xlink:href="#DejaVuSans-65"/>
      <use xlink:href="#DejaVuSans-70" x="61.523438"/>
      <use xlink:href="#DejaVuSans-6f" x="125"/>
      <use xlink:href="#DejaVuSans-63" x="186.181641"/>
      <use xlink:href="#DejaVuSans-68" x="241.162109"/>
      <use xlink:href="#DejaVuSans-73" x="304.541016"/>
     </g>
    </g>
   </g>
   <g id="matplotlib.axis_2">
    <g id="ytick_1">
     <g id="line2d_8">
      <defs>
       <path id="m78b70ee85a" d="M 0 0 
L -3.5 0 
" style="stroke: #000000; stroke-width: 0.8"/>
      </defs>
      <g>
       <use xlink:href="#m78b70ee85a" x="144" y="438.72" style="stroke: #000000; stroke-width: 0.8"/>
      </g>
     </g>
     <g id="text_9">
      <!-- 40 -->
      <g transform="translate(106.46 447.838125)scale(0.24 -0.24)">
       <defs>
        <path id="DejaVuSans-34" d="M 2419 4116 
L 825 1625 
L 2419 1625 
L 2419 4116 
z
M 2253 4666 
L 3047 4666 
L 3047 1625 
L 3713 1625 
L 3713 1100 
L 3047 1100 
L 3047 0 
L 2419 0 
L 2419 1100 
L 313 1100 
L 313 1709 
L 2253 4666 
z
" transform="scale(0.015625)"/>
       </defs>
       <use xlink:href="#DejaVuSans-34"/>
       <use xlink:href="#DejaVuSans-30" x="63.623047"/>
      </g>
     </g>
    </g>
    <g id="ytick_2">
     <g id="line2d_9">
      <g>
       <use xlink:href="#m78b70ee85a" x="144" y="364.8" style="stroke: #000000; stroke-width: 0.8"/>
      </g>
     </g>
     <g id="text_10">
      <!-- 50 -->
      <g transform="translate(106.46 373.918125)scale(0.24 -0.24)">
       <use xlink:href="#DejaVuSans-35"/>
       <use xlink:href="#DejaVuSans-30" x="63.623047"/>
      </g>
     </g>
    </g>
    <g id="ytick_3">
     <g id="line2d_10">
      <g>
       <use xlink:href="#m78b70ee85a" x="144" y="290.88" style="stroke: #000000; stroke-width: 0.8"/>
      </g>
     </g>
     <g id="text_11">
      <!-- 60 -->
      <g transform="translate(106.46 299.998125)scale(0.24 -0.24)">
       <defs>
        <path id="DejaVuSans-36" d="M 2113 2584 
Q 1688 2584 1439 2293 
Q 1191 2003 1191 1497 
Q 1191 994 1439 701 
Q 1688 409 2113 409 
Q 2538 409 2786 701 
Q 3034 994 3034 1497 
Q 3034 2003 2786 2293 
Q 2538 2584 2113 2584 
z
M 3366 4563 
L 3366 3988 
Q 3128 4100 2886 4159 
Q 2644 4219 2406 4219 
Q 1781 4219 1451 3797 
Q 1122 3375 1075 2522 
Q 1259 2794 1537 2939 
Q 1816 3084 2150 3084 
Q 2853 3084 3261 2657 
Q 3669 2231 3669 1497 
Q 3669 778 3244 343 
Q 2819 -91 2113 -91 
Q 1303 -91 875 529 
Q 447 1150 447 2328 
Q 447 3434 972 4092 
Q 1497 4750 2381 4750 
Q 2619 4750 2861 4703 
Q 3103 4656 3366 4563 
z
" transform="scale(0.015625)"/>
       </defs>
       <use xlink:href="#DejaVuSans-36"/>
       <use xlink:href="#DejaVuSans-30" x="63.623047"/>
      </g>
     </g>
    </g>
    <g id="ytick_4">
     <g id="line2d_11">
      <g>
       <use xlink:href="#m78b70ee85a" x="144" y="216.96" style="stroke: #000000; stroke-width: 0.8"/>
      </g>
     </g>
     <g id="text_12">
      <!-- 70 -->
      <g transform="translate(106.46 226.078125)scale(0.24 -0.24)">
       <defs>
        <path id="DejaVuSans-37" d="M 525 4666 
L 3525 4666 
L 3525 4397 
L 1831 0 
L 1172 0 
L 2766 4134 
L 525 4134 
L 525 4666 
z
" transform="scale(0.015625)"/>
       </defs>
       <use xlink:href="#DejaVuSans-37"/>
       <use xlink:href="#DejaVuSans-30" x="63.623047"/>
      </g>
     </g>
    </g>
    <g id="ytick_5">
     <g id="line2d_12">
      <g>
       <use xlink:href="#m78b70ee85a" x="144" y="143.04" style="stroke: #000000; stroke-width: 0.8"/>
      </g>
     </g>
     <g id="text_13">
      <!-- 80 -->
      <g transform="translate(106.46 152.158125)scale(0.24 -0.24)">
       <defs>
        <path id="DejaVuSans-38" d="M 2034 2216 
Q 1584 2216 1326 1975 
Q 1069 1734 1069 1313 
Q 1069 891 1326 650 
Q 1584 409 2034 409 
Q 2484 409 2743 651 
Q 3003 894 3003 1313 
Q 3003 1734 2745 1975 
Q 2488 2216 2034 2216 
z
M 1403 2484 
Q 997 2584 770 2862 
Q 544 3141 544 3541 
Q 544 4100 942 4425 
Q 1341 4750 2034 4750 
Q 2731 4750 3128 4425 
Q 3525 4100 3525 3541 
Q 3525 3141 3298 2862 
Q 3072 2584 2669 2484 
Q 3125 2378 3379 2068 
Q 3634 1759 3634 1313 
Q 3634 634 3220 271 
Q 2806 -91 2034 -91 
Q 1263 -91 848 271 
Q 434 634 434 1313 
Q 434 1759 690 2068 
Q 947 2378 1403 2484 
z
M 1172 3481 
Q 1172 3119 1398 2916 
Q 1625 2713 2034 2713 
Q 2441 2713 2670 2916 
Q 2900 3119 2900 3481 
Q 2900 3844 2670 4047 
Q 2441 4250 2034 4250 
Q 1625 4250 1398 4047 
Q 1172 3844 1172 3481 
z
" transform="scale(0.015625)"/>
       </defs>
       <use xlink:href="#DejaVuSans-38"/>
       <use xlink:href="#DejaVuSans-30" x="63.623047"/>
      </g>
     </g>
    </g>
    <g id="ytick_6">
     <g id="line2d_13">
      <g>
       <use xlink:href="#m78b70ee85a" x="144" y="69.12" style="stroke: #000000; stroke-width: 0.8"/>
      </g>
     </g>
     <g id="text_14">
      <!-- 90 -->
      <g transform="translate(106.46 78.238125)scale(0.24 -0.24)">
       <defs>
        <path id="DejaVuSans-39" d="M 703 97 
L 703 672 
Q 941 559 1184 500 
Q 1428 441 1663 441 
Q 2288 441 2617 861 
Q 2947 1281 2994 2138 
Q 2813 1869 2534 1725 
Q 2256 1581 1919 1581 
Q 1219 1581 811 2004 
Q 403 2428 403 3163 
Q 403 3881 828 4315 
Q 1253 4750 1959 4750 
Q 2769 4750 3195 4129 
Q 3622 3509 3622 2328 
Q 3622 1225 3098 567 
Q 2575 -91 1691 -91 
Q 1453 -91 1209 -44 
Q 966 3 703 97 
z
M 1959 2075 
Q 2384 2075 2632 2365 
Q 2881 2656 2881 3163 
Q 2881 3666 2632 3958 
Q 2384 4250 1959 4250 
Q 1534 4250 1286 3958 
Q 1038 3666 1038 3163 
Q 1038 2656 1286 2365 
Q 1534 2075 1959 2075 
z
" transform="scale(0.015625)"/>
       </defs>
       <use xlink:href="#DejaVuSans-39"/>
       <use xlink:href="#DejaVuSans-30" x="63.623047"/>
      </g>
     </g>
    </g>
    <g id="text_15">
     <!-- accuracy (%) -->
     <g transform="translate(97.46875 369.601875)rotate(-90)scale(0.24 -0.24)">
      <defs>
       <path id="DejaVuSans-61" d="M 2194 1759 
Q 1497 1759 1228 1600 
Q 959 1441 959 1056 
Q 959 750 1161 570 
Q 1363 391 1709 391 
Q 2188 391 2477 730 
Q 2766 1069 2766 1631 
L 2766 1759 
L 2194 1759 
z
M 3341 1997 
L 3341 0 
L 2766 0 
L 2766 531 
Q 2569 213 2275 61 
Q 1981 -91 1556 -91 
Q 1019 -91 701 211 
Q 384 513 384 1019 
Q 384 1609 779 1909 
Q 1175 2209 1959 2209 
L 2766 2209 
L 2766 2266 
Q 2766 2663 2505 2880 
Q 2244 3097 1772 3097 
Q 1472 3097 1187 3025 
Q 903 2953 641 2809 
L 641 3341 
Q 956 3463 1253 3523 
Q 1550 3584 1831 3584 
Q 2591 3584 2966 3190 
Q 3341 2797 3341 1997 
z
" transform="scale(0.015625)"/>
       <path id="DejaVuSans-75" d="M 544 1381 
L 544 3500 
L 1119 3500 
L 1119 1403 
Q 1119 906 1312 657 
Q 1506 409 1894 409 
Q 2359 409 2629 706 
Q 2900 1003 2900 1516 
L 2900 3500 
L 3475 3500 
L 3475 0 
L 2900 0 
L 2900 538 
Q 2691 219 2414 64 
Q 2138 -91 1772 -91 
Q 1169 -91 856 284 
Q 544 659 544 1381 
z
M 1991 3584 
L 1991 3584 
z
" transform="scale(0.015625)"/>
       <path id="DejaVuSans-72" d="M 2631 2963 
Q 2534 3019 2420 3045 
Q 2306 3072 2169 3072 
Q 1681 3072 1420 2755 
Q 1159 2438 1159 1844 
L 1159 0 
L 581 0 
L 581 3500 
L 1159 3500 
L 1159 2956 
Q 1341 3275 1631 3429 
Q 1922 3584 2338 3584 
Q 2397 3584 2469 3576 
Q 2541 3569 2628 3553 
L 2631 2963 
z
" transform="scale(0.015625)"/>
       <path id="DejaVuSans-79" d="M 2059 -325 
Q 1816 -950 1584 -1140 
Q 1353 -1331 966 -1331 
L 506 -1331 
L 506 -850 
L 844 -850 
Q 1081 -850 1212 -737 
Q 1344 -625 1503 -206 
L 1606 56 
L 191 3500 
L 800 3500 
L 1894 763 
L 2988 3500 
L 3597 3500 
L 2059 -325 
z
" transform="scale(0.015625)"/>
       <path id="DejaVuSans-20" transform="scale(0.015625)"/>
       <path id="DejaVuSans-28" d="M 1984 4856 
Q 1566 4138 1362 3434 
Q 1159 2731 1159 2009 
Q 1159 1288 1364 580 
Q 1569 -128 1984 -844 
L 1484 -844 
Q 1016 -109 783 600 
Q 550 1309 550 2009 
Q 550 2706 781 3412 
Q 1013 4119 1484 4856 
L 1984 4856 
z
" transform="scale(0.015625)"/>
       <path id="DejaVuSans-25" d="M 4653 2053 
Q 4381 2053 4226 1822 
Q 4072 1591 4072 1178 
Q 4072 772 4226 539 
Q 4381 306 4653 306 
Q 4919 306 5073 539 
Q 5228 772 5228 1178 
Q 5228 1588 5073 1820 
Q 4919 2053 4653 2053 
z
M 4653 2450 
Q 5147 2450 5437 2106 
Q 5728 1763 5728 1178 
Q 5728 594 5436 251 
Q 5144 -91 4653 -91 
Q 4153 -91 3862 251 
Q 3572 594 3572 1178 
Q 3572 1766 3864 2108 
Q 4156 2450 4653 2450 
z
M 1428 4353 
Q 1159 4353 1004 4120 
Q 850 3888 850 3481 
Q 850 3069 1003 2837 
Q 1156 2606 1428 2606 
Q 1700 2606 1854 2837 
Q 2009 3069 2009 3481 
Q 2009 3884 1853 4118 
Q 1697 4353 1428 4353 
z
M 4250 4750 
L 4750 4750 
L 1831 -91 
L 1331 -91 
L 4250 4750 
z
M 1428 4750 
Q 1922 4750 2215 4408 
Q 2509 4066 2509 3481 
Q 2509 2891 2217 2550 
Q 1925 2209 1428 2209 
Q 931 2209 642 2551 
Q 353 2894 353 3481 
Q 353 4063 643 4406 
Q 934 4750 1428 4750 
z
" transform="scale(0.015625)"/>
       <path id="DejaVuSans-29" d="M 513 4856 
L 1013 4856 
Q 1481 4119 1714 3412 
Q 1947 2706 1947 2009 
Q 1947 1309 1714 600 
Q 1481 -109 1013 -844 
L 513 -844 
Q 928 -128 1133 580 
Q 1338 1288 1338 2009 
Q 1338 2731 1133 3434 
Q 928 4138 513 4856 
z
" transform="scale(0.015625)"/>
      </defs>
      <use xlink:href="#DejaVuSans-61"/>
      <use xlink:href="#DejaVuSans-63" x="61.279297"/>
      <use xlink:href="#DejaVuSans-63" x="116.259766"/>
      <use xlink:href="#DejaVuSans-75" x="171.240234"/>
      <use xlink:href="#DejaVuSans-72" x="234.619141"/>
      <use xlink:href="#DejaVuSans-61" x="275.732422"/>
      <use xlink:href="#DejaVuSans-63" x="337.011719"/>
      <use xlink:href="#DejaVuSans-79" x="391.992188"/>
      <use xlink:href="#DejaVuSans-20" x="451.171875"/>
      <use xlink:href="#DejaVuSans-28" x="482.958984"/>
      <use xlink:href="#DejaVuSans-25" x="521.972656"/>
      <use xlink:href="#DejaVuSans-29" x="616.992188"/>
     </g>
    </g>
   </g>
   <g id="line2d_14">
    <path d="M 155.376924 577 
L 155.904 570.475003 
L 158.88 553.621243 
L 161.856 527.601403 
L 164.832 480.44044 
L 167.808 468.746295 
L 170.784 432.200247 
L 173.76 417.150134 
L 176.736 399.069303 
L 179.712 388.720503 
L 182.688 375.015734 
L 185.664 370.018742 
L 188.64 353.800695 
L 191.616 343.762358 
L 194.592 341.07167 
L 197.568 328.431351 
L 200.544 320.669751 
L 203.52 320.595831 
L 206.496 307.615478 
L 209.472 302.544565 
L 212.448 299.809527 
L 215.424 292.757558 
L 218.4 291.086966 
L 221.376 285.424694 
L 224.352 280.516405 
L 227.328 278.46143 
L 230.304 278.284022 
L 233.28 269.132724 
L 236.256 268.408307 
L 239.232 264.549683 
L 245.184 261.193715 
L 248.16 264.712308 
L 251.136 258.798705 
L 254.112 261.563314 
L 257.088 254.60005 
L 260.064 255.472305 
L 263.04 253.476465 
L 266.016 252.308528 
L 268.992 249.381297 
L 271.968 248.745584 
L 274.944 246.232305 
L 280.896 248.996912 
L 283.872 243.778161 
L 286.848 243.438127 
L 289.824 242.314545 
L 292.8 240.407408 
L 295.776 239.845615 
L 298.752 237.361903 
L 301.728 236.903599 
L 304.704 236.888818 
L 307.68 234.552942 
L 313.632 231.655278 
L 316.608 228.609775 
L 319.584 229.541168 
L 322.56 228.092332 
L 328.512 225.593836 
L 331.488 226.89483 
L 334.464 223.139694 
L 337.44 224.278064 
L 340.416 219.916782 
L 343.392 221.454317 
L 346.368 220.38987 
L 349.344 220.582062 
L 355.296 218.660143 
L 358.272 216.753006 
L 361.248 216.575598 
L 364.224 216.013806 
L 367.2 217.373932 
L 370.176 216.575599 
L 373.152 214.224941 
L 376.128 214.62411 
L 379.104 213.840558 
L 382.08 215.80683 
L 385.056 215.230254 
L 388.032 213.278766 
L 391.008 210.868975 
L 393.984 213.411821 
L 396.96 211.238573 
L 399.936 210.928109 
L 402.912 211.903853 
L 405.888 210.455022 
L 408.864 209.789741 
L 411.84 205.783277 
L 414.816 211.741231 
L 417.792 206.951213 
L 423.744 206.581614 
L 426.72 205.443246 
L 429.696 205.31019 
L 432.672 204.497069 
L 435.648 204.408364 
L 438.624 203.417837 
L 441.6 206.433774 
L 444.576 202.456878 
L 447.552 202.368173 
L 450.528 202.087277 
L 453.504 203.033454 
L 456.48 200.327982 
L 459.456 202.427309 
L 462.432 202.161196 
L 465.408 201.31851 
L 468.384 198.87915 
L 471.36 200.268846 
L 474.336 199.76619 
L 477.312 197.297261 
L 480.288 198.406062 
L 483.264 199.854893 
L 486.24 198.080814 
L 489.216 197.96254 
L 492.192 194.503086 
L 495.168 194.96139 
L 498.144 197.548592 
L 501.12 196.395437 
L 504.096 193.202094 
L 507.072 193.497774 
L 510.048 193.083821 
L 513.024 194.503084 
L 516 193.423854 
L 518.976 191.147118 
L 521.952 192.07851 
L 524.928 192.004589 
L 527.904 191.04363 
L 530.88 189.846125 
L 533.856 192.004589 
L 536.832 190.333998 
L 539.808 188.441645 
L 542.784 188.589483 
L 545.76 189.846124 
L 548.736 187.155438 
L 551.712 187.42155 
L 554.688 188.367724 
L 557.664 186.800622 
L 560.64 188.367724 
L 563.616 185.573551 
L 566.592 185.854445 
L 569.568 187.938991 
L 572.544 183.829037 
L 575.52 185.588335 
L 578.496 183.947309 
L 581.472 182.143663 
L 584.448 183.134189 
L 587.424 181.611435 
L 590.4 181.079214 
L 593.376 181.049644 
L 596.352 179.526891 
L 602.304 181.493167 
L 605.28 180.354797 
L 611.232 179.334701 
L 614.208 179.615598 
L 617.184 178.418093 
L 620.16 178.477228 
L 623.136 177.309294 
L 626.112 176.348333 
L 629.088 177.205807 
L 632.064 177.412782 
L 635.04 175.89003 
L 638.016 173.864622 
L 640.992 178.211117 
L 643.968 174.810798 
L 646.944 173.746349 
L 649.92 174.012461 
L 652.896 173.184557 
L 655.872 173.435886 
L 658.848 172.282735 
L 661.824 172.04619 
L 664.8 171.661805 
L 667.776 172.046188 
L 670.752 170.139054 
L 673.728 171.173934 
L 676.704 170.331244 
L 679.68 171.617452 
L 682.656 167.951022 
L 685.632 168.217132 
L 688.608 168.128429 
L 691.584 167.507501 
L 694.56 165.289902 
L 697.536 166.103021 
L 700.512 164.402863 
L 703.488 165.230765 
L 706.464 166.339567 
L 709.44 163.663661 
L 712.416 163.900207 
L 715.392 164.314157 
L 718.368 161.416492 
L 721.344 162.007854 
L 727.296 161.726958 
L 730.272 160.943405 
L 733.248 159.657198 
L 739.2 160.854702 
L 742.176 159.997229 
L 745.152 159.479789 
L 748.128 157.779629 
L 751.104 157.380461 
L 754.08 156.582127 
L 757.056 156.81867 
L 760.032 156.109034 
L 763.008 156.803886 
L 765.984 155.325486 
L 768.96 156.020333 
L 771.936 155.162861 
L 774.912 154.009709 
L 777.888 154.512365 
L 780.864 152.560878 
L 783.84 153.107886 
L 786.816 152.501741 
L 789.792 152.30955 
L 792.768 153.56619 
L 795.744 151.821677 
L 798.72 151.230316 
L 801.696 150.890284 
L 807.648 149.071853 
L 810.624 149.515373 
L 813.6 149.190126 
L 816.576 148.391789 
L 819.552 147.149934 
L 822.528 147.829997 
L 825.504 147.918701 
L 828.48 147.061229 
L 831.456 145.257583 
L 834.432 146.381166 
L 837.408 145.863726 
L 840.384 145.464556 
L 843.36 144.03051 
L 846.336 144.917552 
L 849.312 144.267053 
L 852.288 145.420206 
L 855.264 143.793966 
L 858.24 143.616558 
L 861.216 142.182509 
L 864.192 143.202607 
L 867.168 142.300781 
L 870.144 142.507756 
L 873.12 141.191982 
L 876.096 141.827694 
L 879.072 140.378862 
L 882.048 140.644974 
L 885.024 140.644974 
L 888 140.127532 
L 890.976 139.033517 
L 893.952 140.970222 
L 896.928 139.22571 
L 899.904 140.349294 
L 902.88 139.181356 
L 905.856 138.752622 
L 914.784 138.057776 
L 917.76 138.146478 
L 920.736 138.102126 
L 923.712 137.229868 
L 926.688 137.155951 
L 929.664 137.436845 
L 932.64 137.274222 
L 935.616 136.194987 
L 941.568 135.677548 
L 944.544 135.692334 
L 947.52 135.42622 
L 950.496 135.514925 
L 953.472 135.293165 
L 956.448 135.426222 
L 959.424 135.322734 
L 962.4 134.820078 
L 965.376 133.888685 
L 968.352 134.376558 
L 971.328 134.657454 
L 974.304 134.19915 
L 977.28 134.598316 
L 983.232 133.977389 
L 986.208 133.962606 
L 989.184 133.548653 
L 992.16 134.568749 
L 995.136 133.918253 
L 998.112 134.095661 
L 1001.088 133.97739 
L 1004.064 134.30264 
L 1010.016 133.770415 
L 1012.992 133.68171 
L 1015.968 133.726062 
L 1018.944 134.021741 
L 1021.92 134.036526 
L 1024.896 133.637359 
L 1030.848 133.785199 
L 1033.824 133.888687 
L 1033.824 133.888687 
" clip-path="url(#p18d2cd6696)" style="fill: none; stroke: #0071bc; stroke-width: 1.5; stroke-linecap: square"/>
   </g>
   <g id="line2d_15">
    <path d="M 157.204634 577 
L 158.88 528.636283 
L 161.856 498.033401 
L 164.832 463.261431 
L 167.808 439.444406 
L 170.784 418.362423 
L 173.76 410.793014 
L 176.736 383.42783 
L 179.712 370.358774 
L 182.688 355.471287 
L 185.664 347.665335 
L 188.64 333.177015 
L 194.592 315.34751 
L 197.568 304.303862 
L 200.544 298.671158 
L 203.52 291.722678 
L 206.496 285.424694 
L 209.472 280.161589 
L 212.448 276.317748 
L 215.424 268.127412 
L 218.4 265.111475 
L 221.376 265.052337 
L 224.352 258.414323 
L 227.328 265.806322 
L 230.304 253.062514 
L 233.28 249.603056 
L 236.256 248.272495 
L 239.232 244.073839 
L 242.208 244.753903 
L 245.184 241.752752 
L 248.16 240.983983 
L 251.136 241.397937 
L 254.112 236.356588 
L 257.088 235.735662 
L 260.064 234.58251 
L 263.04 234.966895 
L 266.016 232.335343 
L 268.992 229.289838 
L 271.968 231.33003 
L 274.944 227.471408 
L 280.896 228.254958 
L 283.872 224.440686 
L 286.848 226.392174 
L 289.824 223.553645 
L 292.8 251.554545 
L 295.776 242.74328 
L 298.752 239.150766 
L 304.704 237.49496 
L 307.68 232.409262 
L 310.656 230.383855 
L 313.632 229.600302 
L 316.608 230.487343 
L 319.584 229.008944 
L 322.56 226.761775 
L 325.536 227.013102 
L 328.512 226.939183 
L 331.488 225.23902 
L 334.464 224.292846 
L 337.44 222.873583 
L 340.416 223.878895 
L 343.392 218.896687 
L 346.368 218.970607 
L 349.344 217.536557 
L 352.32 219.266285 
L 355.296 218.334893 
L 358.272 216.383405 
L 361.248 217.13739 
L 364.224 215.245037 
L 367.2 214.993709 
L 370.176 215.629423 
L 376.128 212.672621 
L 379.104 212.33259 
L 382.08 210.277615 
L 385.056 212.214316 
L 388.032 209.641902 
L 391.008 211.061167 
L 393.984 206.995565 
L 396.96 206.389422 
L 399.936 208.104367 
L 402.912 207.010349 
L 405.888 206.729453 
L 408.864 208.444397 
L 411.84 205.177133 
L 414.816 209.789742 
L 417.792 204.408368 
L 420.768 203.417837 
L 423.744 206.138092 
L 426.72 203.994414 
L 429.696 203.506541 
L 432.672 202.649069 
L 435.648 202.722989 
L 438.624 201.008045 
L 441.6 203.107373 
L 444.576 201.436783 
L 447.552 200.35755 
L 450.528 199.086124 
L 453.504 199.100908 
L 456.48 197.075501 
L 459.456 200.520173 
L 462.432 197.312046 
L 465.408 199.899246 
L 468.384 195.671023 
L 471.36 196.513709 
L 474.336 198.406063 
L 477.312 195.449261 
L 480.288 194.355245 
L 483.264 198.080814 
L 486.24 194.946607 
L 489.216 195.345774 
L 492.192 194.089134 
L 495.168 191.428014 
L 498.144 194.872686 
L 501.12 192.034156 
L 504.096 191.56107 
L 507.072 193.0099 
L 510.048 191.575853 
L 513.024 190.984494 
L 516 191.516718 
L 518.976 188.914733 
L 524.928 189.801772 
L 527.904 189.653932 
L 530.88 186.933678 
L 533.856 188.973868 
L 539.808 186.504939 
L 542.784 186.741486 
L 545.76 185.987501 
L 548.736 185.765742 
L 551.712 186.150126 
L 554.688 184.109934 
L 557.664 185.79531 
L 560.64 186.445805 
L 563.616 183.84382 
L 566.592 184.849133 
L 569.568 182.705454 
L 572.544 179.497325 
L 575.52 181.567085 
L 578.496 182.98635 
L 581.472 182.705453 
L 584.448 180.753967 
L 587.424 179.112941 
L 590.4 179.719087 
L 593.376 179.482542 
L 596.352 177.649327 
L 599.328 179.172078 
L 602.304 179.733869 
L 605.28 178.329391 
L 608.256 175.032558 
L 611.232 178.846831 
L 614.208 176.082221 
L 617.184 176.451821 
L 620.16 174.263789 
L 623.136 176.023086 
L 626.112 173.805486 
L 629.088 174.455982 
L 632.064 173.361965 
L 635.04 173.657644 
L 638.016 172.534062 
L 640.992 174.145516 
L 643.968 172.60798 
L 649.92 171.05566 
L 652.896 168.852846 
L 655.872 168.911981 
L 658.848 169.518124 
L 661.824 169.636397 
L 664.8 169.045036 
L 670.752 166.531756 
L 673.728 166.930926 
L 676.704 166.42827 
L 679.68 166.339566 
L 682.656 165.437741 
L 685.632 164.166318 
L 688.608 164.077615 
L 691.584 165.112494 
L 694.56 163.412334 
L 697.536 164.831598 
L 700.512 162.761836 
L 703.488 164.447216 
L 706.464 163.264492 
L 709.44 162.939244 
L 712.416 161.667822 
L 715.392 161.786093 
L 718.368 160.278126 
L 724.32 159.864175 
L 727.296 159.923309 
L 730.272 158.991917 
L 733.248 159.258031 
L 736.224 157.55787 
L 739.2 157.602222 
L 742.176 155.961198 
L 745.152 156.848237 
L 748.128 155.695085 
L 751.104 155.576813 
L 754.08 154.689775 
L 757.056 154.778478 
L 760.032 153.906223 
L 763.008 154.793261 
L 765.984 152.871342 
L 768.96 153.403566 
L 771.936 152.812205 
L 774.912 151.555566 
L 777.888 152.38347 
L 780.864 150.90507 
L 786.816 150.461549 
L 789.792 150.845932 
L 792.768 149.914541 
L 795.744 149.190126 
L 801.696 149.175341 
L 804.672 147.652589 
L 807.648 148.199598 
L 810.624 146.76555 
L 816.576 147.002094 
L 819.552 146.455084 
L 822.528 145.789805 
L 825.504 145.568046 
L 828.48 145.035822 
L 831.456 144.947117 
L 834.432 143.350446 
L 837.408 143.394796 
L 840.384 143.675693 
L 843.36 142.034669 
L 846.336 142.581677 
L 849.312 142.359918 
L 855.264 142.47819 
L 858.24 140.70411 
L 861.216 140.585836 
L 864.192 140.585838 
L 867.168 139.994476 
L 870.144 140.29016 
L 873.12 141.147629 
L 876.096 138.338669 
L 879.072 138.826541 
L 882.048 138.057774 
L 885.024 138.146478 
L 888 138.75262 
L 893.952 137.74731 
L 896.928 138.013421 
L 899.904 136.97854 
L 905.856 136.63851 
L 908.832 135.662766 
L 911.808 137.407279 
L 914.784 135.781039 
L 917.76 135.736685 
L 920.736 136.875054 
L 923.712 135.544493 
L 926.688 135.23403 
L 929.664 135.219245 
L 932.64 135.692332 
L 935.616 135.248813 
L 938.592 134.553968 
L 941.568 134.731373 
L 947.52 134.627885 
L 950.496 133.726059 
L 953.472 133.740844 
L 956.448 134.051309 
L 959.424 133.933037 
L 962.4 133.090351 
L 965.376 133.119919 
L 968.352 133.001646 
L 974.304 133.459949 
L 977.28 133.252974 
L 980.256 132.898158 
L 983.232 133.045997 
L 986.208 132.972077 
L 992.16 132.306797 
L 995.136 132.439854 
L 998.112 132.912941 
L 1001.088 132.543343 
L 1004.064 132.824236 
L 1007.04 132.957293 
L 1010.016 132.661613 
L 1015.968 132.853804 
L 1018.944 133.016428 
L 1021.92 132.691181 
L 1024.896 132.602477 
L 1027.872 132.750317 
L 1033.824 132.61726 
L 1033.824 132.61726 
" clip-path="url(#p18d2cd6696)" style="fill: none; stroke: #eb9b78; stroke-width: 1.5; stroke-linecap: square"/>
   </g>
   <g id="patch_3">
    <path d="M 144 512.64 
L 144 69.12 
" style="fill: none; stroke: #000000; stroke-width: 0.8; stroke-linejoin: miter; stroke-linecap: square"/>
   </g>
   <g id="patch_4">
    <path d="M 1036.8 512.64 
L 1036.8 69.12 
" style="fill: none; stroke: #000000; stroke-width: 0.8; stroke-linejoin: miter; stroke-linecap: square"/>
   </g>
   <g id="patch_5">
    <path d="M 144 512.64 
L 1036.8 512.64 
" style="fill: none; stroke: #000000; stroke-width: 0.8; stroke-linejoin: miter; stroke-linecap: square"/>
   </g>
   <g id="patch_6">
    <path d="M 144 69.12 
L 1036.8 69.12 
" style="fill: none; stroke: #000000; stroke-width: 0.8; stroke-linejoin: miter; stroke-linecap: square"/>
   </g>
   <g id="legend_1">
    <g id="patch_7">
     <path d="M 790.9425 346.42125 
L 1024.2 346.42125 
Q 1027.8 346.42125 1027.8 342.82125 
L 1027.8 238.93875 
Q 1027.8 235.33875 1024.2 235.33875 
L 790.9425 235.33875 
Q 787.3425 235.33875 787.3425 238.93875 
L 787.3425 342.82125 
Q 787.3425 346.42125 790.9425 346.42125 
z
" style="fill: #ffffff; opacity: 0.8; stroke: #cccccc; stroke-linejoin: miter"/>
    </g>
    <g id="line2d_16">
     <path d="M 794.5425 249.915937 
L 812.5425 249.915937 
L 830.5425 249.915937 
" style="fill: none; stroke: #0071bc; stroke-width: 1.5; stroke-linecap: square"/>
    </g>
    <g id="text_16">
     <!-- baseline test acc -->
     <g transform="translate(844.9425 256.215937)scale(0.18 -0.18)">
      <defs>
       <path id="DejaVuSans-62" d="M 3116 1747 
Q 3116 2381 2855 2742 
Q 2594 3103 2138 3103 
Q 1681 3103 1420 2742 
Q 1159 2381 1159 1747 
Q 1159 1113 1420 752 
Q 1681 391 2138 391 
Q 2594 391 2855 752 
Q 3116 1113 3116 1747 
z
M 1159 2969 
Q 1341 3281 1617 3432 
Q 1894 3584 2278 3584 
Q 2916 3584 3314 3078 
Q 3713 2572 3713 1747 
Q 3713 922 3314 415 
Q 2916 -91 2278 -91 
Q 1894 -91 1617 61 
Q 1341 213 1159 525 
L 1159 0 
L 581 0 
L 581 4863 
L 1159 4863 
L 1159 2969 
z
" transform="scale(0.015625)"/>
       <path id="DejaVuSans-6c" d="M 603 4863 
L 1178 4863 
L 1178 0 
L 603 0 
L 603 4863 
z
" transform="scale(0.015625)"/>
       <path id="DejaVuSans-69" d="M 603 3500 
L 1178 3500 
L 1178 0 
L 603 0 
L 603 3500 
z
M 603 4863 
L 1178 4863 
L 1178 4134 
L 603 4134 
L 603 4863 
z
" transform="scale(0.015625)"/>
       <path id="DejaVuSans-6e" d="M 3513 2113 
L 3513 0 
L 2938 0 
L 2938 2094 
Q 2938 2591 2744 2837 
Q 2550 3084 2163 3084 
Q 1697 3084 1428 2787 
Q 1159 2491 1159 1978 
L 1159 0 
L 581 0 
L 581 3500 
L 1159 3500 
L 1159 2956 
Q 1366 3272 1645 3428 
Q 1925 3584 2291 3584 
Q 2894 3584 3203 3211 
Q 3513 2838 3513 2113 
z
" transform="scale(0.015625)"/>
       <path id="DejaVuSans-74" d="M 1172 4494 
L 1172 3500 
L 2356 3500 
L 2356 3053 
L 1172 3053 
L 1172 1153 
Q 1172 725 1289 603 
Q 1406 481 1766 481 
L 2356 481 
L 2356 0 
L 1766 0 
Q 1100 0 847 248 
Q 594 497 594 1153 
L 594 3053 
L 172 3053 
L 172 3500 
L 594 3500 
L 594 4494 
L 1172 4494 
z
" transform="scale(0.015625)"/>
      </defs>
      <use xlink:href="#DejaVuSans-62"/>
      <use xlink:href="#DejaVuSans-61" x="63.476562"/>
      <use xlink:href="#DejaVuSans-73" x="124.755859"/>
      <use xlink:href="#DejaVuSans-65" x="176.855469"/>
      <use xlink:href="#DejaVuSans-6c" x="238.378906"/>
      <use xlink:href="#DejaVuSans-69" x="266.162109"/>
      <use xlink:href="#DejaVuSans-6e" x="293.945312"/>
      <use xlink:href="#DejaVuSans-65" x="357.324219"/>
      <use xlink:href="#DejaVuSans-20" x="418.847656"/>
      <use xlink:href="#DejaVuSans-74" x="450.634766"/>
      <use xlink:href="#DejaVuSans-65" x="489.84375"/>
      <use xlink:href="#DejaVuSans-73" x="551.367188"/>
      <use xlink:href="#DejaVuSans-74" x="603.466797"/>
      <use xlink:href="#DejaVuSans-20" x="642.675781"/>
      <use xlink:href="#DejaVuSans-61" x="674.462891"/>
      <use xlink:href="#DejaVuSans-63" x="735.742188"/>
      <use xlink:href="#DejaVuSans-63" x="790.722656"/>
     </g>
    </g>
    <g id="line2d_17">
     <path d="M 794.5425 276.336562 
L 812.5425 276.336562 
L 830.5425 276.336562 
" style="fill: none; stroke: #eb9b78; stroke-width: 1.5; stroke-linecap: square"/>
    </g>
    <g id="text_17">
     <!-- soft mask test acc -->
     <g transform="translate(844.9425 282.636562)scale(0.18 -0.18)">
      <defs>
       <path id="DejaVuSans-66" d="M 2375 4863 
L 2375 4384 
L 1825 4384 
Q 1516 4384 1395 4259 
Q 1275 4134 1275 3809 
L 1275 3500 
L 2222 3500 
L 2222 3053 
L 1275 3053 
L 1275 0 
L 697 0 
L 697 3053 
L 147 3053 
L 147 3500 
L 697 3500 
L 697 3744 
Q 697 4328 969 4595 
Q 1241 4863 1831 4863 
L 2375 4863 
z
" transform="scale(0.015625)"/>
       <path id="DejaVuSans-6d" d="M 3328 2828 
Q 3544 3216 3844 3400 
Q 4144 3584 4550 3584 
Q 5097 3584 5394 3201 
Q 5691 2819 5691 2113 
L 5691 0 
L 5113 0 
L 5113 2094 
Q 5113 2597 4934 2840 
Q 4756 3084 4391 3084 
Q 3944 3084 3684 2787 
Q 3425 2491 3425 1978 
L 3425 0 
L 2847 0 
L 2847 2094 
Q 2847 2600 2669 2842 
Q 2491 3084 2119 3084 
Q 1678 3084 1418 2786 
Q 1159 2488 1159 1978 
L 1159 0 
L 581 0 
L 581 3500 
L 1159 3500 
L 1159 2956 
Q 1356 3278 1631 3431 
Q 1906 3584 2284 3584 
Q 2666 3584 2933 3390 
Q 3200 3197 3328 2828 
z
" transform="scale(0.015625)"/>
       <path id="DejaVuSans-6b" d="M 581 4863 
L 1159 4863 
L 1159 1991 
L 2875 3500 
L 3609 3500 
L 1753 1863 
L 3688 0 
L 2938 0 
L 1159 1709 
L 1159 0 
L 581 0 
L 581 4863 
z
" transform="scale(0.015625)"/>
      </defs>
      <use xlink:href="#DejaVuSans-73"/>
      <use xlink:href="#DejaVuSans-6f" x="52.099609"/>
      <use xlink:href="#DejaVuSans-66" x="113.28125"/>
      <use xlink:href="#DejaVuSans-74" x="146.736328"/>
      <use xlink:href="#DejaVuSans-20" x="185.945312"/>
      <use xlink:href="#DejaVuSans-6d" x="217.732422"/>
      <use xlink:href="#DejaVuSans-61" x="315.144531"/>
      <use xlink:href="#DejaVuSans-73" x="376.423828"/>
      <use xlink:href="#DejaVuSans-6b" x="428.523438"/>
      <use xlink:href="#DejaVuSans-20" x="486.433594"/>
      <use xlink:href="#DejaVuSans-74" x="518.220703"/>
      <use xlink:href="#DejaVuSans-65" x="557.429688"/>
      <use xlink:href="#DejaVuSans-73" x="618.953125"/>
      <use xlink:href="#DejaVuSans-74" x="671.052734"/>
      <use xlink:href="#DejaVuSans-20" x="710.261719"/>
      <use xlink:href="#DejaVuSans-61" x="742.048828"/>
      <use xlink:href="#DejaVuSans-63" x="803.328125"/>
      <use xlink:href="#DejaVuSans-63" x="858.308594"/>
     </g>
    </g>
    <g id="line2d_18">
     <path d="M 794.5425 302.757187 
L 812.5425 302.757187 
L 830.5425 302.757187 
" style="fill: none; stroke-dasharray: 5.55,2.4; stroke-dashoffset: 0; stroke: #0071bc; stroke-width: 1.5"/>
    </g>
    <g id="text_18">
     <!-- baseline train loss -->
     <g transform="translate(844.9425 309.057187)scale(0.18 -0.18)">
      <use xlink:href="#DejaVuSans-62"/>
      <use xlink:href="#DejaVuSans-61" x="63.476562"/>
      <use xlink:href="#DejaVuSans-73" x="124.755859"/>
      <use xlink:href="#DejaVuSans-65" x="176.855469"/>
      <use xlink:href="#DejaVuSans-6c" x="238.378906"/>
      <use xlink:href="#DejaVuSans-69" x="266.162109"/>
      <use xlink:href="#DejaVuSans-6e" x="293.945312"/>
      <use xlink:href="#DejaVuSans-65" x="357.324219"/>
      <use xlink:href="#DejaVuSans-20" x="418.847656"/>
      <use xlink:href="#DejaVuSans-74" x="450.634766"/>
      <use xlink:href="#DejaVuSans-72" x="489.84375"/>
      <use xlink:href="#DejaVuSans-61" x="530.957031"/>
      <use xlink:href="#DejaVuSans-69" x="592.236328"/>
      <use xlink:href="#DejaVuSans-6e" x="620.019531"/>
      <use xlink:href="#DejaVuSans-20" x="683.398438"/>
      <use xlink:href="#DejaVuSans-6c" x="715.185547"/>
      <use xlink:href="#DejaVuSans-6f" x="742.96875"/>
      <use xlink:href="#DejaVuSans-73" x="804.150391"/>
      <use xlink:href="#DejaVuSans-73" x="856.25"/>
     </g>
    </g>
    <g id="line2d_19">
     <path d="M 794.5425 329.177812 
L 812.5425 329.177812 
L 830.5425 329.177812 
" style="fill: none; stroke-dasharray: 5.55,2.4; stroke-dashoffset: 0; stroke: #eb9b78; stroke-width: 1.5"/>
    </g>
    <g id="text_19">
     <!-- soft mask train loss -->
     <g transform="translate(844.9425 335.477812)scale(0.18 -0.18)">
      <use xlink:href="#DejaVuSans-73"/>
      <use xlink:href="#DejaVuSans-6f" x="52.099609"/>
      <use xlink:href="#DejaVuSans-66" x="113.28125"/>
      <use xlink:href="#DejaVuSans-74" x="146.736328"/>
      <use xlink:href="#DejaVuSans-20" x="185.945312"/>
      <use xlink:href="#DejaVuSans-6d" x="217.732422"/>
      <use xlink:href="#DejaVuSans-61" x="315.144531"/>
      <use xlink:href="#DejaVuSans-73" x="376.423828"/>
      <use xlink:href="#DejaVuSans-6b" x="428.523438"/>
      <use xlink:href="#DejaVuSans-20" x="486.433594"/>
      <use xlink:href="#DejaVuSans-74" x="518.220703"/>
      <use xlink:href="#DejaVuSans-72" x="557.429688"/>
      <use xlink:href="#DejaVuSans-61" x="598.542969"/>
      <use xlink:href="#DejaVuSans-69" x="659.822266"/>
      <use xlink:href="#DejaVuSans-6e" x="687.605469"/>
      <use xlink:href="#DejaVuSans-20" x="750.984375"/>
      <use xlink:href="#DejaVuSans-6c" x="782.771484"/>
      <use xlink:href="#DejaVuSans-6f" x="810.554688"/>
      <use xlink:href="#DejaVuSans-73" x="871.736328"/>
      <use xlink:href="#DejaVuSans-73" x="923.835938"/>
     </g>
    </g>
   </g>
  </g>
  <g id="axes_2">
   <g id="matplotlib.axis_3">
    <g id="ytick_7">
     <g id="line2d_20">
      <defs>
       <path id="mbe0527cbfc" d="M 0 0 
L 3.5 0 
" style="stroke: #000000; stroke-width: 0.8"/>
      </defs>
      <g>
       <use xlink:href="#mbe0527cbfc" x="1036.8" y="457.2" style="stroke: #000000; stroke-width: 0.8"/>
      </g>
     </g>
     <g id="text_20">
      <!-- 3 -->
      <g transform="translate(1043.8 466.318125)scale(0.24 -0.24)">
       <use xlink:href="#DejaVuSans-33"/>
      </g>
     </g>
    </g>
    <g id="ytick_8">
     <g id="line2d_21">
      <g>
       <use xlink:href="#mbe0527cbfc" x="1036.8" y="346.32" style="stroke: #000000; stroke-width: 0.8"/>
      </g>
     </g>
     <g id="text_21">
      <!-- 4 -->
      <g transform="translate(1043.8 355.438125)scale(0.24 -0.24)">
       <use xlink:href="#DejaVuSans-34"/>
      </g>
     </g>
    </g>
    <g id="ytick_9">
     <g id="line2d_22">
      <g>
       <use xlink:href="#mbe0527cbfc" x="1036.8" y="235.44" style="stroke: #000000; stroke-width: 0.8"/>
      </g>
     </g>
     <g id="text_22">
      <!-- 5 -->
      <g transform="translate(1043.8 244.558125)scale(0.24 -0.24)">
       <use xlink:href="#DejaVuSans-35"/>
      </g>
     </g>
    </g>
    <g id="ytick_10">
     <g id="line2d_23">
      <g>
       <use xlink:href="#mbe0527cbfc" x="1036.8" y="124.56" style="stroke: #000000; stroke-width: 0.8"/>
      </g>
     </g>
     <g id="text_23">
      <!-- 6 -->
      <g transform="translate(1043.8 133.678125)scale(0.24 -0.24)">
       <use xlink:href="#DejaVuSans-36"/>
      </g>
     </g>
    </g>
    <g id="text_24">
     <!-- train loss -->
     <g transform="translate(1081.30625 345.8025)rotate(-90)scale(0.24 -0.24)">
      <use xlink:href="#DejaVuSans-74"/>
      <use xlink:href="#DejaVuSans-72" x="39.208984"/>
      <use xlink:href="#DejaVuSans-61" x="80.322266"/>
      <use xlink:href="#DejaVuSans-69" x="141.601562"/>
      <use xlink:href="#DejaVuSans-6e" x="169.384766"/>
      <use xlink:href="#DejaVuSans-20" x="232.763672"/>
      <use xlink:href="#DejaVuSans-6c" x="264.550781"/>
      <use xlink:href="#DejaVuSans-6f" x="292.333984"/>
      <use xlink:href="#DejaVuSans-73" x="353.515625"/>
      <use xlink:href="#DejaVuSans-73" x="405.615234"/>
     </g>
    </g>
   </g>
   <g id="line2d_24">
    <path d="M 144 25.736135 
L 146.976 55.055757 
L 149.952 81.058437 
L 158.88 135.147465 
L 164.832 165.341129 
L 170.784 188.476132 
L 173.76 200.394012 
L 176.736 209.613754 
L 179.712 216.433349 
L 182.688 224.903624 
L 185.664 230.014184 
L 191.616 241.9439 
L 197.568 252.778902 
L 200.544 257.547952 
L 203.52 260.923465 
L 206.496 267.146565 
L 209.472 271.326356 
L 212.448 272.172459 
L 218.4 282.234386 
L 221.376 284.164736 
L 224.352 287.983669 
L 227.328 290.692839 
L 230.304 293.055423 
L 233.28 293.158887 
L 236.256 296.58655 
L 239.232 300.283004 
L 242.208 300.046609 
L 245.184 303.601755 
L 248.16 304.406391 
L 251.136 305.600064 
L 254.112 307.929068 
L 260.064 309.868219 
L 263.04 311.91744 
L 266.016 311.668479 
L 268.992 313.769628 
L 271.968 314.628889 
L 274.944 317.033267 
L 277.92 315.123887 
L 280.896 315.871307 
L 283.872 317.803502 
L 289.824 319.503074 
L 292.8 320.093892 
L 295.776 322.478058 
L 298.752 323.023585 
L 301.728 324.942033 
L 304.704 325.52064 
L 307.68 327.139247 
L 310.656 327.312965 
L 313.632 327.25277 
L 316.608 331.188213 
L 319.584 331.544385 
L 322.56 332.952527 
L 325.536 334.23705 
L 328.512 332.831839 
L 331.488 335.821776 
L 334.464 335.620451 
L 337.44 336.42159 
L 340.416 337.831002 
L 346.368 339.668675 
L 349.344 340.822733 
L 361.248 342.973531 
L 364.224 342.61883 
L 367.2 344.159347 
L 370.176 345.305481 
L 373.152 345.480172 
L 376.128 346.490738 
L 379.104 346.68503 
L 382.08 347.57845 
L 385.056 346.992669 
L 388.032 348.750793 
L 391.008 349.729474 
L 393.984 350.193477 
L 396.96 349.47335 
L 399.936 350.868152 
L 402.912 349.346565 
L 405.888 351.263726 
L 408.864 351.947299 
L 411.84 352.811258 
L 414.816 353.358905 
L 417.792 352.250581 
L 420.768 354.1214 
L 423.744 354.776937 
L 426.72 354.81241 
L 429.696 354.703197 
L 432.672 354.772483 
L 435.648 356.360219 
L 438.624 356.493764 
L 441.6 356.327989 
L 444.576 357.319486 
L 447.552 357.280116 
L 450.528 357.913643 
L 453.504 358.772996 
L 456.48 359.05689 
L 459.456 359.853323 
L 465.408 360.180534 
L 468.384 360.550785 
L 471.36 360.488288 
L 474.336 362.469321 
L 477.312 362.432994 
L 480.288 362.068682 
L 483.264 363.792788 
L 486.24 362.355546 
L 489.216 364.481335 
L 492.192 364.747178 
L 495.168 364.740494 
L 498.144 365.550349 
L 501.12 365.677499 
L 504.096 366.034362 
L 507.072 367.775207 
L 510.048 366.85186 
L 513.024 367.315289 
L 516 367.377261 
L 521.952 369.900871 
L 524.928 369.43975 
L 527.904 368.426294 
L 530.88 370.495498 
L 536.832 371.077604 
L 539.808 371.739514 
L 542.784 372.271735 
L 545.76 373.261612 
L 548.736 372.549676 
L 551.712 373.778122 
L 554.688 374.272913 
L 557.664 375.563153 
L 560.64 375.93187 
L 563.616 375.90723 
L 566.592 376.069268 
L 569.568 376.103813 
L 575.52 377.652008 
L 578.496 378.029203 
L 581.472 378.734865 
L 584.448 379.655337 
L 587.424 379.676929 
L 590.4 380.864374 
L 593.376 381.353278 
L 596.352 381.437291 
L 599.328 381.745017 
L 602.304 382.706745 
L 605.28 383.020927 
L 608.256 384.538955 
L 611.232 384.511898 
L 614.208 384.280583 
L 617.184 386.265671 
L 620.16 384.92591 
L 623.136 387.750205 
L 629.088 387.405094 
L 632.064 388.614314 
L 635.04 389.297586 
L 638.016 389.78304 
L 640.992 390.957433 
L 643.968 391.101193 
L 646.944 391.100543 
L 649.92 391.837533 
L 652.896 393.215013 
L 655.872 393.391086 
L 658.848 394.501574 
L 661.824 394.864788 
L 664.8 394.822317 
L 667.776 396.24772 
L 670.752 396.672338 
L 673.728 396.667705 
L 676.704 398.488273 
L 679.68 398.028527 
L 682.656 398.880855 
L 685.632 400.923598 
L 688.608 399.684184 
L 691.584 400.620639 
L 694.56 402.084034 
L 697.536 402.010233 
L 700.512 403.860093 
L 703.488 403.826825 
L 709.44 404.702305 
L 712.416 405.882818 
L 715.392 407.355903 
L 718.368 407.928941 
L 721.344 407.985534 
L 724.32 409.518264 
L 727.296 409.461918 
L 730.272 409.770739 
L 736.224 411.912907 
L 742.176 413.597965 
L 745.152 414.00391 
L 748.128 414.525144 
L 751.104 415.987375 
L 754.08 415.887415 
L 757.056 417.47162 
L 760.032 417.489633 
L 763.008 418.649797 
L 765.984 419.244859 
L 768.96 420.518651 
L 774.912 420.995782 
L 777.888 422.689477 
L 780.864 422.803396 
L 783.84 424.679825 
L 786.816 425.234851 
L 789.792 425.615753 
L 792.768 425.824698 
L 795.744 427.26289 
L 798.72 427.803265 
L 804.672 429.844339 
L 807.648 431.130414 
L 810.624 430.857876 
L 813.6 431.434909 
L 816.576 433.611406 
L 819.552 433.140772 
L 822.528 434.374794 
L 825.504 434.882859 
L 831.456 436.70973 
L 834.432 438.864828 
L 837.408 438.588002 
L 840.384 439.7018 
L 843.36 441.262645 
L 846.336 442.313489 
L 852.288 443.560181 
L 855.264 443.503529 
L 864.192 447.297388 
L 867.168 447.338728 
L 870.144 448.34314 
L 873.12 449.22937 
L 876.096 448.995601 
L 879.072 450.287477 
L 882.048 451.248457 
L 885.024 451.342215 
L 888 452.335821 
L 890.976 453.074252 
L 893.952 454.161965 
L 896.928 454.284114 
L 899.904 455.628049 
L 902.88 456.391785 
L 905.856 456.379644 
L 908.832 457.729797 
L 914.784 458.896542 
L 920.736 461.256078 
L 923.712 460.903491 
L 926.688 462.36423 
L 929.664 462.165616 
L 932.64 462.748365 
L 935.616 462.705738 
L 938.592 464.219584 
L 941.568 464.790559 
L 944.544 465.750198 
L 947.52 466.510138 
L 950.496 466.145638 
L 953.472 466.224783 
L 956.448 466.980442 
L 959.424 468.141883 
L 962.4 468.042047 
L 965.376 469.143813 
L 968.352 468.461867 
L 971.328 470.913553 
L 974.304 468.59933 
L 977.28 470.402505 
L 980.256 470.28333 
L 983.232 470.893937 
L 986.208 471.688916 
L 992.16 471.869448 
L 995.136 471.809331 
L 998.112 472.653016 
L 1001.088 473.379312 
L 1004.064 471.979238 
L 1007.04 472.745793 
L 1010.016 471.813084 
L 1012.992 472.995963 
L 1015.968 473.26085 
L 1018.944 472.885651 
L 1021.92 472.784292 
L 1024.896 472.125653 
L 1027.872 472.380169 
L 1030.848 473.319496 
L 1033.824 473.025792 
L 1033.824 473.025792 
" clip-path="url(#p18d2cd6696)" style="fill: none; stroke-dasharray: 5.55,2.4; stroke-dashoffset: 0; stroke: #0071bc; stroke-width: 1.5"/>
   </g>
   <g id="line2d_25">
    <path d="M 144 26.246585 
L 146.976 55.592322 
L 149.952 82.279734 
L 152.928 102.50442 
L 155.904 125.257483 
L 158.88 140.287968 
L 161.856 158.946587 
L 164.832 173.099645 
L 167.808 188.873328 
L 170.784 200.395362 
L 173.76 211.197643 
L 179.712 228.861998 
L 182.688 238.386601 
L 185.664 244.369852 
L 188.64 252.827462 
L 191.616 260.801525 
L 194.592 266.442655 
L 197.568 273.071137 
L 200.544 278.904144 
L 203.52 282.277812 
L 206.496 289.662422 
L 209.472 292.859563 
L 212.448 296.227754 
L 215.424 299.827369 
L 218.4 303.842784 
L 221.376 307.441636 
L 224.352 310.418513 
L 227.328 312.885571 
L 230.304 314.57272 
L 233.28 315.199508 
L 236.256 319.545826 
L 239.232 321.321351 
L 242.208 322.388682 
L 245.184 325.170208 
L 248.16 325.562133 
L 251.136 327.481574 
L 254.112 329.268061 
L 260.064 331.386204 
L 263.04 333.68808 
L 266.016 332.139092 
L 268.992 335.494236 
L 271.968 335.654574 
L 274.944 337.558478 
L 277.92 335.981332 
L 280.896 337.196249 
L 283.872 338.541046 
L 286.848 339.113625 
L 289.824 340.287603 
L 292.8 296.517051 
L 295.776 315.424804 
L 298.752 319.822691 
L 301.728 323.534559 
L 304.704 324.660575 
L 307.68 327.315708 
L 310.656 328.253077 
L 313.632 328.896001 
L 316.608 332.129661 
L 319.584 333.073676 
L 322.56 333.069815 
L 325.536 335.458913 
L 328.512 334.704571 
L 331.488 337.570286 
L 334.464 337.708989 
L 337.44 339.104179 
L 340.416 340.246111 
L 343.392 341.255543 
L 349.344 343.691969 
L 352.32 344.154844 
L 355.296 344.160902 
L 358.272 344.813519 
L 361.248 345.830029 
L 364.224 345.5797 
L 367.2 347.506776 
L 370.176 348.782435 
L 373.152 348.139312 
L 376.128 349.152589 
L 382.08 350.34011 
L 385.056 350.274252 
L 388.032 352.303465 
L 391.008 353.099807 
L 393.984 352.957771 
L 396.96 352.671033 
L 399.936 353.872643 
L 402.912 353.750548 
L 405.888 355.0748 
L 408.864 354.842792 
L 411.84 356.13304 
L 414.816 356.917464 
L 417.792 355.5608 
L 420.768 357.658741 
L 423.744 358.399726 
L 426.72 358.260577 
L 429.696 358.671218 
L 432.672 358.689032 
L 435.648 359.809327 
L 438.624 360.273505 
L 441.6 359.775923 
L 444.576 360.78891 
L 447.552 360.762649 
L 450.528 361.815125 
L 453.504 362.16653 
L 456.48 362.84568 
L 459.456 363.771919 
L 462.432 363.803532 
L 465.408 363.580818 
L 468.384 364.352205 
L 471.36 364.69583 
L 474.336 365.631724 
L 477.312 365.917702 
L 480.288 365.648611 
L 483.264 367.233306 
L 486.24 366.396863 
L 489.216 368.079375 
L 495.168 368.456318 
L 498.144 369.124749 
L 501.12 369.636448 
L 504.096 369.906201 
L 507.072 371.396329 
L 510.048 370.553046 
L 513.024 371.184705 
L 516 370.967752 
L 521.952 373.513318 
L 524.928 373.065466 
L 527.904 373.123671 
L 530.88 374.347628 
L 533.856 374.783535 
L 536.832 374.577415 
L 539.808 375.846031 
L 542.784 376.14608 
L 545.76 377.016981 
L 548.736 376.549441 
L 551.712 377.416864 
L 554.688 377.94687 
L 557.664 379.144147 
L 560.64 379.767687 
L 563.616 379.49192 
L 569.568 379.942031 
L 572.544 380.824758 
L 578.496 382.039001 
L 581.472 382.416108 
L 584.448 383.481248 
L 587.424 383.529192 
L 593.376 385.194947 
L 596.352 385.194778 
L 599.328 385.402245 
L 602.304 386.653875 
L 605.28 386.740896 
L 608.256 388.22961 
L 611.232 388.140629 
L 614.208 388.437489 
L 617.184 390.092191 
L 620.16 388.680166 
L 623.136 391.07193 
L 626.112 391.312274 
L 629.088 391.240456 
L 632.064 392.537041 
L 635.04 392.894573 
L 638.016 393.421367 
L 640.992 394.535628 
L 646.944 394.821858 
L 649.92 395.619027 
L 652.896 396.835851 
L 655.872 397.128625 
L 658.848 398.242566 
L 661.824 398.515941 
L 664.8 398.520558 
L 667.776 400.091058 
L 670.752 400.41863 
L 673.728 400.599122 
L 676.704 401.956223 
L 679.68 401.816362 
L 682.656 402.588106 
L 685.632 404.702933 
L 688.608 403.3265 
L 691.584 404.294994 
L 694.56 405.857056 
L 697.536 405.69082 
L 700.512 407.615389 
L 703.488 407.383132 
L 709.44 408.327901 
L 712.416 409.440771 
L 715.392 411.116396 
L 718.368 411.603438 
L 721.344 411.712342 
L 724.32 413.190002 
L 727.296 413.171482 
L 730.272 413.397194 
L 733.248 414.807789 
L 736.224 415.446946 
L 742.176 417.16603 
L 748.128 418.235466 
L 751.104 419.611189 
L 754.08 419.398534 
L 757.056 421.161378 
L 760.032 421.146793 
L 763.008 422.361063 
L 765.984 422.825976 
L 768.96 424.078504 
L 771.936 424.558765 
L 774.912 424.740663 
L 777.888 426.392765 
L 780.864 426.2978 
L 783.84 428.428052 
L 786.816 428.938922 
L 792.768 429.483744 
L 795.744 430.760654 
L 798.72 431.415177 
L 801.696 432.381427 
L 807.648 434.823988 
L 810.624 434.494645 
L 813.6 434.978141 
L 816.576 437.064335 
L 819.552 436.82942 
L 822.528 438.044945 
L 825.504 438.322068 
L 831.456 440.169097 
L 834.432 442.370064 
L 837.408 442.171994 
L 840.384 443.193862 
L 843.36 444.755298 
L 846.336 445.966194 
L 849.312 446.29349 
L 852.288 447.103675 
L 855.264 447.018787 
L 858.24 448.28339 
L 861.216 449.340434 
L 864.192 450.776259 
L 867.168 450.811713 
L 873.12 452.71156 
L 876.096 452.547323 
L 879.072 453.824184 
L 882.048 454.714006 
L 885.024 454.864389 
L 888 455.784386 
L 890.976 456.416588 
L 893.952 457.644116 
L 896.928 457.688996 
L 899.904 459.104401 
L 902.88 459.876556 
L 905.856 460.074495 
L 908.832 461.155947 
L 911.808 461.902667 
L 914.784 462.43372 
L 920.736 464.671157 
L 923.712 464.368749 
L 926.688 465.734739 
L 929.664 465.651727 
L 932.64 466.259908 
L 935.616 466.23207 
L 938.592 467.754141 
L 941.568 468.237514 
L 944.544 469.199707 
L 947.52 469.891897 
L 950.496 469.694008 
L 953.472 469.688545 
L 956.448 470.354753 
L 959.424 471.668075 
L 962.4 471.577001 
L 965.376 472.586182 
L 968.352 471.919364 
L 971.328 474.283286 
L 974.304 471.990383 
L 977.28 473.788857 
L 980.256 473.671698 
L 983.232 474.351506 
L 986.208 475.205508 
L 995.136 475.313187 
L 998.112 476.140528 
L 1001.088 476.730467 
L 1004.064 475.441721 
L 1007.04 476.290053 
L 1010.016 475.272685 
L 1012.992 476.453711 
L 1015.968 476.810151 
L 1018.944 476.372467 
L 1021.92 476.237938 
L 1024.896 475.684174 
L 1027.872 475.907849 
L 1030.848 476.85584 
L 1033.824 476.427789 
L 1033.824 476.427789 
" clip-path="url(#p18d2cd6696)" style="fill: none; stroke-dasharray: 5.55,2.4; stroke-dashoffset: 0; stroke: #eb9b78; stroke-width: 1.5"/>
   </g>
   <g id="patch_8">
    <path d="M 144 512.64 
L 144 69.12 
" style="fill: none; stroke: #000000; stroke-width: 0.8; stroke-linejoin: miter; stroke-linecap: square"/>
   </g>
   <g id="patch_9">
    <path d="M 1036.8 512.64 
L 1036.8 69.12 
" style="fill: none; stroke: #000000; stroke-width: 0.8; stroke-linejoin: miter; stroke-linecap: square"/>
   </g>
   <g id="patch_10">
    <path d="M 144 512.64 
L 1036.8 512.64 
" style="fill: none; stroke: #000000; stroke-width: 0.8; stroke-linejoin: miter; stroke-linecap: square"/>
   </g>
   <g id="patch_11">
    <path d="M 144 69.12 
L 1036.8 69.12 
" style="fill: none; stroke: #000000; stroke-width: 0.8; stroke-linejoin: miter; stroke-linecap: square"/>
   </g>
  </g>
 </g>
 <defs>
  <clipPath id="p18d2cd6696">
   <rect x="144" y="69.12" width="892.8" height="443.52"/>
  </clipPath>
 </defs>
</svg>
