<?xml version="1.0" encoding="utf-8" standalone="no"?>
<!DOCTYPE svg PUBLIC "-//W3C//DTD SVG 1.1//EN"
  "http://www.w3.org/Graphics/SVG/1.1/DTD/svg11.dtd">
<svg xmlns:xlink="http://www.w3.org/1999/xlink" width="1152pt" height="576pt" viewBox="0 0 1152 576" xmlns="http://www.w3.org/2000/svg" version="1.1">
 <metadata>
  <rdf:RDF xmlns:dc="http://purl.org/dc/elements/1.1/" xmlns:cc="http://creativecommons.org/ns#" xmlns:rdf="http://www.w3.org/1999/02/22-rdf-syntax-ns#">
   <cc:Work>
    <dc:type rdf:resource="http://purl.org/dc/dcmitype/StillImage"/>
    <dc:date>2024-04-08T18:27:57.825322</dc:date>
    <dc:format>image/svg+xml</dc:format>
    <dc:creator>
     <cc:Agent>
      <dc:title>Matplotlib v3.5.3, https://matplotlib.org/</dc:title>
     </cc:Agent>
    </dc:creator>
   </cc:Work>
  </rdf:RDF>
 </metadata>
 <defs>
  <style type="text/css">*{stroke-linejoin: round; stroke-linecap: butt}</style>
 </defs>
 <g id="figure_1">
  <g id="patch_1">
   <path d="M 0 576 
L 1152 576 
L 1152 0 
L 0 0 
z
" style="fill: #ffffff"/>
  </g>
  <g id="axes_1">
   <g id="patch_2">
    <path d="M 144 512.64 
L 1036.8 512.64 
L 1036.8 69.12 
L 144 69.12 
z
" style="fill: #ffffff"/>
   </g>
   <g id="matplotlib.axis_1">
    <g id="xtick_1">
     <g id="line2d_1">
      <defs>
       <path id="m73f852c55b" d="M 0 0 
L 0 3.5 
" style="stroke: #000000; stroke-width: 0.8"/>
      </defs>
      <g>
       <use xlink:href="#m73f852c55b" x="144" y="512.64" style="stroke: #000000; stroke-width: 0.8"/>
      </g>
     </g>
     <g id="text_1">
      <!-- 0 -->
      <g transform="translate(136.365 537.87625)scale(0.24 -0.24)">
       <defs>
        <path id="DejaVuSans-30" d="M 2034 4250 
Q 1547 4250 1301 3770 
Q 1056 3291 1056 2328 
Q 1056 1369 1301 889 
Q 1547 409 2034 409 
Q 2525 409 2770 889 
Q 3016 1369 3016 2328 
Q 3016 3291 2770 3770 
Q 2525 4250 2034 4250 
z
M 2034 4750 
Q 2819 4750 3233 4129 
Q 3647 3509 3647 2328 
Q 3647 1150 3233 529 
Q 2819 -91 2034 -91 
Q 1250 -91 836 529 
Q 422 1150 422 2328 
Q 422 3509 836 4129 
Q 1250 4750 2034 4750 
z
" transform="scale(0.015625)"/>
       </defs>
       <use xlink:href="#DejaVuSans-30"/>
      </g>
     </g>
    </g>
    <g id="xtick_2">
     <g id="line2d_2">
      <g>
       <use xlink:href="#m73f852c55b" x="292.8" y="512.64" style="stroke: #000000; stroke-width: 0.8"/>
      </g>
     </g>
     <g id="text_2">
      <!-- 50 -->
      <g transform="translate(277.53 537.87625)scale(0.24 -0.24)">
       <defs>
        <path id="DejaVuSans-35" d="M 691 4666 
L 3169 4666 
L 3169 4134 
L 1269 4134 
L 1269 2991 
Q 1406 3038 1543 3061 
Q 1681 3084 1819 3084 
Q 2600 3084 3056 2656 
Q 3513 2228 3513 1497 
Q 3513 744 3044 326 
Q 2575 -91 1722 -91 
Q 1428 -91 1123 -41 
Q 819 9 494 109 
L 494 744 
Q 775 591 1075 516 
Q 1375 441 1709 441 
Q 2250 441 2565 725 
Q 2881 1009 2881 1497 
Q 2881 1984 2565 2268 
Q 2250 2553 1709 2553 
Q 1456 2553 1204 2497 
Q 953 2441 691 2322 
L 691 4666 
z
" transform="scale(0.015625)"/>
       </defs>
       <use xlink:href="#DejaVuSans-35"/>
       <use xlink:href="#DejaVuSans-30" x="63.623047"/>
      </g>
     </g>
    </g>
    <g id="xtick_3">
     <g id="line2d_3">
      <g>
       <use xlink:href="#m73f852c55b" x="441.6" y="512.64" style="stroke: #000000; stroke-width: 0.8"/>
      </g>
     </g>
     <g id="text_3">
      <!-- 100 -->
      <g transform="translate(418.695 537.87625)scale(0.24 -0.24)">
       <defs>
        <path id="DejaVuSans-31" d="M 794 531 
L 1825 531 
L 1825 4091 
L 703 3866 
L 703 4441 
L 1819 4666 
L 2450 4666 
L 2450 531 
L 3481 531 
L 3481 0 
L 794 0 
L 794 531 
z
" transform="scale(0.015625)"/>
       </defs>
       <use xlink:href="#DejaVuSans-31"/>
       <use xlink:href="#DejaVuSans-30" x="63.623047"/>
       <use xlink:href="#DejaVuSans-30" x="127.246094"/>
      </g>
     </g>
    </g>
    <g id="xtick_4">
     <g id="line2d_4">
      <g>
       <use xlink:href="#m73f852c55b" x="590.4" y="512.64" style="stroke: #000000; stroke-width: 0.8"/>
      </g>
     </g>
     <g id="text_4">
      <!-- 150 -->
      <g transform="translate(567.495 537.87625)scale(0.24 -0.24)">
       <use xlink:href="#DejaVuSans-31"/>
       <use xlink:href="#DejaVuSans-35" x="63.623047"/>
       <use xlink:href="#DejaVuSans-30" x="127.246094"/>
      </g>
     </g>
    </g>
    <g id="xtick_5">
     <g id="line2d_5">
      <g>
       <use xlink:href="#m73f852c55b" x="739.2" y="512.64" style="stroke: #000000; stroke-width: 0.8"/>
      </g>
     </g>
     <g id="text_5">
      <!-- 200 -->
      <g transform="translate(716.295 537.87625)scale(0.24 -0.24)">
       <defs>
        <path id="DejaVuSans-32" d="M 1228 531 
L 3431 531 
L 3431 0 
L 469 0 
L 469 531 
Q 828 903 1448 1529 
Q 2069 2156 2228 2338 
Q 2531 2678 2651 2914 
Q 2772 3150 2772 3378 
Q 2772 3750 2511 3984 
Q 2250 4219 1831 4219 
Q 1534 4219 1204 4116 
Q 875 4013 500 3803 
L 500 4441 
Q 881 4594 1212 4672 
Q 1544 4750 1819 4750 
Q 2544 4750 2975 4387 
Q 3406 4025 3406 3419 
Q 3406 3131 3298 2873 
Q 3191 2616 2906 2266 
Q 2828 2175 2409 1742 
Q 1991 1309 1228 531 
z
" transform="scale(0.015625)"/>
       </defs>
       <use xlink:href="#DejaVuSans-32"/>
       <use xlink:href="#DejaVuSans-30" x="63.623047"/>
       <use xlink:href="#DejaVuSans-30" x="127.246094"/>
      </g>
     </g>
    </g>
    <g id="xtick_6">
     <g id="line2d_6">
      <g>
       <use xlink:href="#m73f852c55b" x="888" y="512.64" style="stroke: #000000; stroke-width: 0.8"/>
      </g>
     </g>
     <g id="text_6">
      <!-- 250 -->
      <g transform="translate(865.095 537.87625)scale(0.24 -0.24)">
       <use xlink:href="#DejaVuSans-32"/>
       <use xlink:href="#DejaVuSans-35" x="63.623047"/>
       <use xlink:href="#DejaVuSans-30" x="127.246094"/>
      </g>
     </g>
    </g>
    <g id="xtick_7">
     <g id="line2d_7">
      <g>
       <use xlink:href="#m73f852c55b" x="1036.8" y="512.64" style="stroke: #000000; stroke-width: 0.8"/>
      </g>
     </g>
     <g id="text_7">
      <!-- 300 -->
      <g transform="translate(1013.895 537.87625)scale(0.24 -0.24)">
       <defs>
        <path id="DejaVuSans-33" d="M 2597 2516 
Q 3050 2419 3304 2112 
Q 3559 1806 3559 1356 
Q 3559 666 3084 287 
Q 2609 -91 1734 -91 
Q 1441 -91 1130 -33 
Q 819 25 488 141 
L 488 750 
Q 750 597 1062 519 
Q 1375 441 1716 441 
Q 2309 441 2620 675 
Q 2931 909 2931 1356 
Q 2931 1769 2642 2001 
Q 2353 2234 1838 2234 
L 1294 2234 
L 1294 2753 
L 1863 2753 
Q 2328 2753 2575 2939 
Q 2822 3125 2822 3475 
Q 2822 3834 2567 4026 
Q 2313 4219 1838 4219 
Q 1578 4219 1281 4162 
Q 984 4106 628 3988 
L 628 4550 
Q 988 4650 1302 4700 
Q 1616 4750 1894 4750 
Q 2613 4750 3031 4423 
Q 3450 4097 3450 3541 
Q 3450 3153 3228 2886 
Q 3006 2619 2597 2516 
z
" transform="scale(0.015625)"/>
       </defs>
       <use xlink:href="#DejaVuSans-33"/>
       <use xlink:href="#DejaVuSans-30" x="63.623047"/>
       <use xlink:href="#DejaVuSans-30" x="127.246094"/>
      </g>
     </g>
    </g>
    <g id="text_8">
     <!-- epochs -->
     <g transform="translate(547.60125 565.10375)scale(0.24 -0.24)">
      <defs>
       <path id="DejaVuSans-65" d="M 3597 1894 
L 3597 1613 
L 953 1613 
Q 991 1019 1311 708 
Q 1631 397 2203 397 
Q 2534 397 2845 478 
Q 3156 559 3463 722 
L 3463 178 
Q 3153 47 2828 -22 
Q 2503 -91 2169 -91 
Q 1331 -91 842 396 
Q 353 884 353 1716 
Q 353 2575 817 3079 
Q 1281 3584 2069 3584 
Q 2775 3584 3186 3129 
Q 3597 2675 3597 1894 
z
M 3022 2063 
Q 3016 2534 2758 2815 
Q 2500 3097 2075 3097 
Q 1594 3097 1305 2825 
Q 1016 2553 972 2059 
L 3022 2063 
z
" transform="scale(0.015625)"/>
       <path id="DejaVuSans-70" d="M 1159 525 
L 1159 -1331 
L 581 -1331 
L 581 3500 
L 1159 3500 
L 1159 2969 
Q 1341 3281 1617 3432 
Q 1894 3584 2278 3584 
Q 2916 3584 3314 3078 
Q 3713 2572 3713 1747 
Q 3713 922 3314 415 
Q 2916 -91 2278 -91 
Q 1894 -91 1617 61 
Q 1341 213 1159 525 
z
M 3116 1747 
Q 3116 2381 2855 2742 
Q 2594 3103 2138 3103 
Q 1681 3103 1420 2742 
Q 1159 2381 1159 1747 
Q 1159 1113 1420 752 
Q 1681 391 2138 391 
Q 2594 391 2855 752 
Q 3116 1113 3116 1747 
z
" transform="scale(0.015625)"/>
       <path id="DejaVuSans-6f" d="M 1959 3097 
Q 1497 3097 1228 2736 
Q 959 2375 959 1747 
Q 959 1119 1226 758 
Q 1494 397 1959 397 
Q 2419 397 2687 759 
Q 2956 1122 2956 1747 
Q 2956 2369 2687 2733 
Q 2419 3097 1959 3097 
z
M 1959 3584 
Q 2709 3584 3137 3096 
Q 3566 2609 3566 1747 
Q 3566 888 3137 398 
Q 2709 -91 1959 -91 
Q 1206 -91 779 398 
Q 353 888 353 1747 
Q 353 2609 779 3096 
Q 1206 3584 1959 3584 
z
" transform="scale(0.015625)"/>
       <path id="DejaVuSans-63" d="M 3122 3366 
L 3122 2828 
Q 2878 2963 2633 3030 
Q 2388 3097 2138 3097 
Q 1578 3097 1268 2742 
Q 959 2388 959 1747 
Q 959 1106 1268 751 
Q 1578 397 2138 397 
Q 2388 397 2633 464 
Q 2878 531 3122 666 
L 3122 134 
Q 2881 22 2623 -34 
Q 2366 -91 2075 -91 
Q 1284 -91 818 406 
Q 353 903 353 1747 
Q 353 2603 823 3093 
Q 1294 3584 2113 3584 
Q 2378 3584 2631 3529 
Q 2884 3475 3122 3366 
z
" transform="scale(0.015625)"/>
       <path id="DejaVuSans-68" d="M 3513 2113 
L 3513 0 
L 2938 0 
L 2938 2094 
Q 2938 2591 2744 2837 
Q 2550 3084 2163 3084 
Q 1697 3084 1428 2787 
Q 1159 2491 1159 1978 
L 1159 0 
L 581 0 
L 581 4863 
L 1159 4863 
L 1159 2956 
Q 1366 3272 1645 3428 
Q 1925 3584 2291 3584 
Q 2894 3584 3203 3211 
Q 3513 2838 3513 2113 
z
" transform="scale(0.015625)"/>
       <path id="DejaVuSans-73" d="M 2834 3397 
L 2834 2853 
Q 2591 2978 2328 3040 
Q 2066 3103 1784 3103 
Q 1356 3103 1142 2972 
Q 928 2841 928 2578 
Q 928 2378 1081 2264 
Q 1234 2150 1697 2047 
L 1894 2003 
Q 2506 1872 2764 1633 
Q 3022 1394 3022 966 
Q 3022 478 2636 193 
Q 2250 -91 1575 -91 
Q 1294 -91 989 -36 
Q 684 19 347 128 
L 347 722 
Q 666 556 975 473 
Q 1284 391 1588 391 
Q 1994 391 2212 530 
Q 2431 669 2431 922 
Q 2431 1156 2273 1281 
Q 2116 1406 1581 1522 
L 1381 1569 
Q 847 1681 609 1914 
Q 372 2147 372 2553 
Q 372 3047 722 3315 
Q 1072 3584 1716 3584 
Q 2034 3584 2315 3537 
Q 2597 3491 2834 3397 
z
" transform="scale(0.015625)"/>
      </defs>
      <use xlink:href="#DejaVuSans-65"/>
      <use xlink:href="#DejaVuSans-70" x="61.523438"/>
      <use xlink:href="#DejaVuSans-6f" x="125"/>
      <use xlink:href="#DejaVuSans-63" x="186.181641"/>
      <use xlink:href="#DejaVuSans-68" x="241.162109"/>
      <use xlink:href="#DejaVuSans-73" x="304.541016"/>
     </g>
    </g>
   </g>
   <g id="matplotlib.axis_2">
    <g id="ytick_1">
     <g id="line2d_8">
      <defs>
       <path id="m17e9bb5933" d="M 0 0 
L -3.5 0 
" style="stroke: #000000; stroke-width: 0.8"/>
      </defs>
      <g>
       <use xlink:href="#m17e9bb5933" x="144" y="438.72" style="stroke: #000000; stroke-width: 0.8"/>
      </g>
     </g>
     <g id="text_9">
      <!-- 30 -->
      <g transform="translate(106.46 447.838125)scale(0.24 -0.24)">
       <use xlink:href="#DejaVuSans-33"/>
       <use xlink:href="#DejaVuSans-30" x="63.623047"/>
      </g>
     </g>
    </g>
    <g id="ytick_2">
     <g id="line2d_9">
      <g>
       <use xlink:href="#m17e9bb5933" x="144" y="364.8" style="stroke: #000000; stroke-width: 0.8"/>
      </g>
     </g>
     <g id="text_10">
      <!-- 40 -->
      <g transform="translate(106.46 373.918125)scale(0.24 -0.24)">
       <defs>
        <path id="DejaVuSans-34" d="M 2419 4116 
L 825 1625 
L 2419 1625 
L 2419 4116 
z
M 2253 4666 
L 3047 4666 
L 3047 1625 
L 3713 1625 
L 3713 1100 
L 3047 1100 
L 3047 0 
L 2419 0 
L 2419 1100 
L 313 1100 
L 313 1709 
L 2253 4666 
z
" transform="scale(0.015625)"/>
       </defs>
       <use xlink:href="#DejaVuSans-34"/>
       <use xlink:href="#DejaVuSans-30" x="63.623047"/>
      </g>
     </g>
    </g>
    <g id="ytick_3">
     <g id="line2d_10">
      <g>
       <use xlink:href="#m17e9bb5933" x="144" y="290.88" style="stroke: #000000; stroke-width: 0.8"/>
      </g>
     </g>
     <g id="text_11">
      <!-- 50 -->
      <g transform="translate(106.46 299.998125)scale(0.24 -0.24)">
       <use xlink:href="#DejaVuSans-35"/>
       <use xlink:href="#DejaVuSans-30" x="63.623047"/>
      </g>
     </g>
    </g>
    <g id="ytick_4">
     <g id="line2d_11">
      <g>
       <use xlink:href="#m17e9bb5933" x="144" y="216.96" style="stroke: #000000; stroke-width: 0.8"/>
      </g>
     </g>
     <g id="text_12">
      <!-- 60 -->
      <g transform="translate(106.46 226.078125)scale(0.24 -0.24)">
       <defs>
        <path id="DejaVuSans-36" d="M 2113 2584 
Q 1688 2584 1439 2293 
Q 1191 2003 1191 1497 
Q 1191 994 1439 701 
Q 1688 409 2113 409 
Q 2538 409 2786 701 
Q 3034 994 3034 1497 
Q 3034 2003 2786 2293 
Q 2538 2584 2113 2584 
z
M 3366 4563 
L 3366 3988 
Q 3128 4100 2886 4159 
Q 2644 4219 2406 4219 
Q 1781 4219 1451 3797 
Q 1122 3375 1075 2522 
Q 1259 2794 1537 2939 
Q 1816 3084 2150 3084 
Q 2853 3084 3261 2657 
Q 3669 2231 3669 1497 
Q 3669 778 3244 343 
Q 2819 -91 2113 -91 
Q 1303 -91 875 529 
Q 447 1150 447 2328 
Q 447 3434 972 4092 
Q 1497 4750 2381 4750 
Q 2619 4750 2861 4703 
Q 3103 4656 3366 4563 
z
" transform="scale(0.015625)"/>
       </defs>
       <use xlink:href="#DejaVuSans-36"/>
       <use xlink:href="#DejaVuSans-30" x="63.623047"/>
      </g>
     </g>
    </g>
    <g id="ytick_5">
     <g id="line2d_12">
      <g>
       <use xlink:href="#m17e9bb5933" x="144" y="143.04" style="stroke: #000000; stroke-width: 0.8"/>
      </g>
     </g>
     <g id="text_13">
      <!-- 70 -->
      <g transform="translate(106.46 152.158125)scale(0.24 -0.24)">
       <defs>
        <path id="DejaVuSans-37" d="M 525 4666 
L 3525 4666 
L 3525 4397 
L 1831 0 
L 1172 0 
L 2766 4134 
L 525 4134 
L 525 4666 
z
" transform="scale(0.015625)"/>
       </defs>
       <use xlink:href="#DejaVuSans-37"/>
       <use xlink:href="#DejaVuSans-30" x="63.623047"/>
      </g>
     </g>
    </g>
    <g id="ytick_6">
     <g id="line2d_13">
      <g>
       <use xlink:href="#m17e9bb5933" x="144" y="69.12" style="stroke: #000000; stroke-width: 0.8"/>
      </g>
     </g>
     <g id="text_14">
      <!-- 80 -->
      <g transform="translate(106.46 78.238125)scale(0.24 -0.24)">
       <defs>
        <path id="DejaVuSans-38" d="M 2034 2216 
Q 1584 2216 1326 1975 
Q 1069 1734 1069 1313 
Q 1069 891 1326 650 
Q 1584 409 2034 409 
Q 2484 409 2743 651 
Q 3003 894 3003 1313 
Q 3003 1734 2745 1975 
Q 2488 2216 2034 2216 
z
M 1403 2484 
Q 997 2584 770 2862 
Q 544 3141 544 3541 
Q 544 4100 942 4425 
Q 1341 4750 2034 4750 
Q 2731 4750 3128 4425 
Q 3525 4100 3525 3541 
Q 3525 3141 3298 2862 
Q 3072 2584 2669 2484 
Q 3125 2378 3379 2068 
Q 3634 1759 3634 1313 
Q 3634 634 3220 271 
Q 2806 -91 2034 -91 
Q 1263 -91 848 271 
Q 434 634 434 1313 
Q 434 1759 690 2068 
Q 947 2378 1403 2484 
z
M 1172 3481 
Q 1172 3119 1398 2916 
Q 1625 2713 2034 2713 
Q 2441 2713 2670 2916 
Q 2900 3119 2900 3481 
Q 2900 3844 2670 4047 
Q 2441 4250 2034 4250 
Q 1625 4250 1398 4047 
Q 1172 3844 1172 3481 
z
" transform="scale(0.015625)"/>
       </defs>
       <use xlink:href="#DejaVuSans-38"/>
       <use xlink:href="#DejaVuSans-30" x="63.623047"/>
      </g>
     </g>
    </g>
    <g id="text_15">
     <!-- accuracy (%) -->
     <g transform="translate(97.46875 369.601875)rotate(-90)scale(0.24 -0.24)">
      <defs>
       <path id="DejaVuSans-61" d="M 2194 1759 
Q 1497 1759 1228 1600 
Q 959 1441 959 1056 
Q 959 750 1161 570 
Q 1363 391 1709 391 
Q 2188 391 2477 730 
Q 2766 1069 2766 1631 
L 2766 1759 
L 2194 1759 
z
M 3341 1997 
L 3341 0 
L 2766 0 
L 2766 531 
Q 2569 213 2275 61 
Q 1981 -91 1556 -91 
Q 1019 -91 701 211 
Q 384 513 384 1019 
Q 384 1609 779 1909 
Q 1175 2209 1959 2209 
L 2766 2209 
L 2766 2266 
Q 2766 2663 2505 2880 
Q 2244 3097 1772 3097 
Q 1472 3097 1187 3025 
Q 903 2953 641 2809 
L 641 3341 
Q 956 3463 1253 3523 
Q 1550 3584 1831 3584 
Q 2591 3584 2966 3190 
Q 3341 2797 3341 1997 
z
" transform="scale(0.015625)"/>
       <path id="DejaVuSans-75" d="M 544 1381 
L 544 3500 
L 1119 3500 
L 1119 1403 
Q 1119 906 1312 657 
Q 1506 409 1894 409 
Q 2359 409 2629 706 
Q 2900 1003 2900 1516 
L 2900 3500 
L 3475 3500 
L 3475 0 
L 2900 0 
L 2900 538 
Q 2691 219 2414 64 
Q 2138 -91 1772 -91 
Q 1169 -91 856 284 
Q 544 659 544 1381 
z
M 1991 3584 
L 1991 3584 
z
" transform="scale(0.015625)"/>
       <path id="DejaVuSans-72" d="M 2631 2963 
Q 2534 3019 2420 3045 
Q 2306 3072 2169 3072 
Q 1681 3072 1420 2755 
Q 1159 2438 1159 1844 
L 1159 0 
L 581 0 
L 581 3500 
L 1159 3500 
L 1159 2956 
Q 1341 3275 1631 3429 
Q 1922 3584 2338 3584 
Q 2397 3584 2469 3576 
Q 2541 3569 2628 3553 
L 2631 2963 
z
" transform="scale(0.015625)"/>
       <path id="DejaVuSans-79" d="M 2059 -325 
Q 1816 -950 1584 -1140 
Q 1353 -1331 966 -1331 
L 506 -1331 
L 506 -850 
L 844 -850 
Q 1081 -850 1212 -737 
Q 1344 -625 1503 -206 
L 1606 56 
L 191 3500 
L 800 3500 
L 1894 763 
L 2988 3500 
L 3597 3500 
L 2059 -325 
z
" transform="scale(0.015625)"/>
       <path id="DejaVuSans-20" transform="scale(0.015625)"/>
       <path id="DejaVuSans-28" d="M 1984 4856 
Q 1566 4138 1362 3434 
Q 1159 2731 1159 2009 
Q 1159 1288 1364 580 
Q 1569 -128 1984 -844 
L 1484 -844 
Q 1016 -109 783 600 
Q 550 1309 550 2009 
Q 550 2706 781 3412 
Q 1013 4119 1484 4856 
L 1984 4856 
z
" transform="scale(0.015625)"/>
       <path id="DejaVuSans-25" d="M 4653 2053 
Q 4381 2053 4226 1822 
Q 4072 1591 4072 1178 
Q 4072 772 4226 539 
Q 4381 306 4653 306 
Q 4919 306 5073 539 
Q 5228 772 5228 1178 
Q 5228 1588 5073 1820 
Q 4919 2053 4653 2053 
z
M 4653 2450 
Q 5147 2450 5437 2106 
Q 5728 1763 5728 1178 
Q 5728 594 5436 251 
Q 5144 -91 4653 -91 
Q 4153 -91 3862 251 
Q 3572 594 3572 1178 
Q 3572 1766 3864 2108 
Q 4156 2450 4653 2450 
z
M 1428 4353 
Q 1159 4353 1004 4120 
Q 850 3888 850 3481 
Q 850 3069 1003 2837 
Q 1156 2606 1428 2606 
Q 1700 2606 1854 2837 
Q 2009 3069 2009 3481 
Q 2009 3884 1853 4118 
Q 1697 4353 1428 4353 
z
M 4250 4750 
L 4750 4750 
L 1831 -91 
L 1331 -91 
L 4250 4750 
z
M 1428 4750 
Q 1922 4750 2215 4408 
Q 2509 4066 2509 3481 
Q 2509 2891 2217 2550 
Q 1925 2209 1428 2209 
Q 931 2209 642 2551 
Q 353 2894 353 3481 
Q 353 4063 643 4406 
Q 934 4750 1428 4750 
z
" transform="scale(0.015625)"/>
       <path id="DejaVuSans-29" d="M 513 4856 
L 1013 4856 
Q 1481 4119 1714 3412 
Q 1947 2706 1947 2009 
Q 1947 1309 1714 600 
Q 1481 -109 1013 -844 
L 513 -844 
Q 928 -128 1133 580 
Q 1338 1288 1338 2009 
Q 1338 2731 1133 3434 
Q 928 4138 513 4856 
z
" transform="scale(0.015625)"/>
      </defs>
      <use xlink:href="#DejaVuSans-61"/>
      <use xlink:href="#DejaVuSans-63" x="61.279297"/>
      <use xlink:href="#DejaVuSans-63" x="116.259766"/>
      <use xlink:href="#DejaVuSans-75" x="171.240234"/>
      <use xlink:href="#DejaVuSans-72" x="234.619141"/>
      <use xlink:href="#DejaVuSans-61" x="275.732422"/>
      <use xlink:href="#DejaVuSans-63" x="337.011719"/>
      <use xlink:href="#DejaVuSans-79" x="391.992188"/>
      <use xlink:href="#DejaVuSans-20" x="451.171875"/>
      <use xlink:href="#DejaVuSans-28" x="482.958984"/>
      <use xlink:href="#DejaVuSans-25" x="521.972656"/>
      <use xlink:href="#DejaVuSans-29" x="616.992188"/>
     </g>
    </g>
   </g>
   <g id="line2d_14">
    <path d="M 153.140012 577 
L 155.904 545.84486 
L 158.88 516.749947 
L 161.856 492.770299 
L 164.832 466.321723 
L 167.808 441.735931 
L 170.784 421.363578 
L 173.76 404.716792 
L 176.736 384.521847 
L 179.712 373.404278 
L 182.688 357.437559 
L 185.664 384.078327 
L 188.64 333.797943 
L 191.616 324.735351 
L 194.592 320.802808 
L 197.568 312.24287 
L 200.544 304.599542 
L 203.52 291.190455 
L 206.496 292.506231 
L 209.472 285.646455 
L 212.448 283.694967 
L 218.4 274.883703 
L 221.376 275.652471 
L 224.352 266.56031 
L 227.328 265.939382 
L 230.304 261.075447 
L 233.28 261.740727 
L 236.256 266.92991 
L 239.232 252.648566 
L 242.208 252.885111 
L 245.184 250.948407 
L 248.16 251.318006 
L 251.136 246.394936 
L 254.112 249.115191 
L 257.088 242.004086 
L 260.064 242.979831 
L 263.04 238.988151 
L 266.016 238.76639 
L 268.992 237.332342 
L 271.968 237.554103 
L 274.944 233.695478 
L 277.92 236.460087 
L 280.896 233.991159 
L 283.872 239.002934 
L 286.848 232.941495 
L 289.824 232.157943 
L 292.8 232.424055 
L 295.776 228.772406 
L 298.752 228.077558 
L 301.728 223.450166 
L 304.704 226.776565 
L 307.68 221.557815 
L 310.656 220.271606 
L 313.632 219.39935 
L 316.608 221.17343 
L 319.584 220.552502 
L 322.56 215.62943 
L 325.536 214.195382 
L 328.512 215.156341 
L 331.488 211.874294 
L 334.464 214.845877 
L 337.44 215.18591 
L 340.416 210.898549 
L 343.392 209.464501 
L 346.368 208.784438 
L 349.344 210.602871 
L 355.296 209.405365 
L 358.272 206.46335 
L 361.248 205.694581 
L 364.224 207.897397 
L 367.2 204.408373 
L 370.176 205.029301 
L 373.152 202.161205 
L 376.128 204.955381 
L 379.104 203.255221 
L 382.08 203.47698 
L 385.056 202.841268 
L 388.032 199.455731 
L 391.008 200.874997 
L 393.984 204.083125 
L 396.96 201.111541 
L 402.912 203.122164 
L 405.888 199.381812 
L 408.864 199.751413 
L 411.84 197.474677 
L 414.816 196.765043 
L 417.792 197.312051 
L 420.768 194.370035 
L 423.744 199.100916 
L 426.72 193.157747 
L 429.696 194.429172 
L 432.672 193.364724 
L 435.648 192.965555 
L 438.624 192.137651 
L 441.6 193.113395 
L 444.576 195.020533 
L 447.552 194.20741 
L 450.528 192.610738 
L 453.504 193.956083 
L 456.48 190.866226 
L 459.456 189.387826 
L 462.432 192.35941 
L 465.408 189.506099 
L 471.36 190.274867 
L 474.336 189.40261 
L 477.312 188.131186 
L 480.288 188.95909 
L 483.264 188.486003 
L 486.24 188.412084 
L 489.216 187.865074 
L 492.192 188.234673 
L 495.168 184.464755 
L 498.144 187.421555 
L 504.096 182.986354 
L 507.072 184.198643 
L 510.048 184.568241 
L 513.024 184.139507 
L 516 184.257777 
L 518.976 181.670579 
L 521.952 183.799473 
L 524.928 180.103472 
L 527.904 182.838513 
L 530.88 178.46245 
L 533.856 178.639858 
L 536.832 180.088688 
L 539.808 177.678895 
L 542.784 178.151984 
L 545.76 179.319923 
L 548.736 177.900658 
L 554.688 178.255473 
L 557.664 175.195184 
L 560.64 178.004145 
L 563.616 175.609136 
L 566.592 175.99352 
L 569.568 174.825585 
L 572.544 175.032561 
L 575.52 173.805489 
L 578.496 174.042034 
L 581.472 175.10648 
L 584.448 173.938543 
L 587.424 172.2236 
L 590.4 172.711473 
L 593.376 174.707311 
L 596.352 169.355506 
L 599.328 172.371438 
L 602.304 171.780081 
L 605.28 170.493873 
L 608.256 170.286897 
L 611.232 169.015471 
L 614.208 169.887728 
L 617.184 169.754673 
L 620.16 167.152687 
L 623.136 168.719792 
L 626.112 166.916144 
L 629.088 165.600368 
L 632.064 163.767152 
L 635.04 163.545391 
L 638.016 165.792559 
L 640.992 165.171631 
L 643.968 164.151535 
L 646.944 163.560175 
L 649.92 162.066991 
L 652.896 160.91384 
L 655.872 162.954031 
L 658.848 164.092399 
L 661.824 160.440752 
L 664.8 159.878958 
L 667.776 161.401712 
L 670.752 160.780784 
L 673.728 159.731118 
L 676.704 159.317165 
L 679.68 158.356207 
L 682.656 157.247409 
L 685.632 157.084782 
L 688.608 157.927471 
L 691.584 157.513518 
L 694.56 155.236781 
L 697.536 156.020334 
L 700.512 152.767854 
L 703.488 155.177646 
L 706.464 155.34027 
L 709.44 153.684463 
L 712.416 152.501744 
L 715.392 152.90091 
L 718.368 148.746604 
L 721.344 150.372847 
L 724.32 149.958894 
L 727.296 151.792111 
L 730.272 149.944109 
L 733.248 148.924013 
L 736.224 149.057071 
L 739.2 147.637807 
L 745.152 146.676845 
L 748.128 147.164716 
L 751.104 147.194286 
L 754.08 144.533165 
L 757.056 144.400111 
L 760.032 144.429678 
L 763.008 143.764397 
L 765.984 143.572205 
L 768.96 141.339822 
L 771.936 143.468719 
L 774.912 142.226861 
L 777.888 141.33982 
L 780.864 139.37355 
L 783.84 141.384174 
L 786.816 139.00395 
L 789.792 137.909934 
L 792.768 138.456943 
L 798.72 137.126381 
L 801.696 136.194991 
L 804.672 135.60363 
L 807.648 136.668078 
L 810.624 135.086189 
L 813.6 134.701807 
L 816.576 133.711278 
L 819.552 134.12523 
L 822.528 133.607788 
L 825.504 131.050157 
L 828.48 132.218094 
L 834.432 132.158956 
L 837.408 131.257134 
L 840.384 129.157805 
L 843.36 130.754477 
L 846.336 129.630894 
L 852.288 128.21163 
L 855.264 128.122925 
L 858.24 126.274926 
L 861.216 127.280237 
L 864.192 127.221101 
L 867.168 125.890544 
L 870.144 125.417453 
L 873.12 124.353007 
L 876.096 124.693037 
L 885.024 123.554669 
L 888 122.209326 
L 890.976 122.179756 
L 893.952 121.3075 
L 896.928 122.460654 
L 899.904 119.769967 
L 902.88 119.459501 
L 908.832 119.326445 
L 911.808 118.616812 
L 914.784 119.429933 
L 917.76 117.552365 
L 920.736 117.153198 
L 926.688 117.626283 
L 929.664 115.364333 
L 932.64 116.103534 
L 935.616 115.926126 
L 938.592 115.231278 
L 941.568 115.571311 
L 944.544 115.733933 
L 947.52 115.246061 
L 950.496 114.211183 
L 953.472 114.994732 
L 956.448 114.211181 
L 959.424 114.876461 
L 962.4 113.664174 
L 965.376 113.738094 
L 968.352 114.196399 
L 971.328 113.368492 
L 974.304 113.309357 
L 977.28 113.072813 
L 980.256 111.87531 
L 983.232 112.392749 
L 986.208 112.156206 
L 989.184 112.377965 
L 992.16 112.185774 
L 995.136 111.328301 
L 998.112 111.461359 
L 1001.088 111.801389 
L 1004.064 111.446574 
L 1007.04 111.712686 
L 1010.016 111.35787 
L 1012.992 111.609199 
L 1015.968 111.550064 
L 1018.944 111.106542 
L 1021.92 111.668335 
L 1024.896 111.668334 
L 1027.872 111.343086 
L 1030.848 111.239597 
L 1033.824 111.490926 
L 1033.824 111.490926 
" clip-path="url(#p542a801a0d)" style="fill: none; stroke: #0071bc; stroke-width: 1.5; stroke-linecap: square"/>
   </g>
   <g id="line2d_15">
    <path d="M 152.735729 577 
L 152.928 574.969342 
L 155.904 546.184893 
L 158.88 512.447803 
L 161.856 483.663355 
L 164.832 457.022587 
L 167.808 432.155898 
L 170.784 409.092856 
L 173.76 395.018488 
L 176.736 373.15295 
L 179.712 360.527415 
L 182.688 350.134263 
L 185.664 334.670199 
L 188.64 321.423735 
L 191.616 311.828919 
L 194.592 303.653367 
L 197.568 294.531638 
L 200.544 287.583159 
L 203.52 282.541814 
L 206.496 274.588022 
L 209.472 267.565622 
L 212.448 263.75135 
L 215.424 257.423798 
L 218.4 254.466999 
L 221.376 250.105718 
L 224.352 247.740278 
L 227.328 244.162551 
L 230.304 236.99231 
L 233.28 234.789494 
L 236.256 234.759926 
L 239.232 228.506293 
L 242.208 229.925559 
L 245.184 225.490358 
L 248.16 228.166261 
L 251.136 224.366774 
L 254.112 223.405815 
L 257.088 219.813301 
L 260.064 218.054005 
L 263.04 220.153334 
L 266.016 215.865973 
L 268.992 217.595701 
L 271.968 215.156342 
L 274.944 212.524788 
L 277.92 211.164661 
L 280.896 211.815158 
L 283.872 211.726453 
L 286.848 209.627125 
L 289.824 210.129781 
L 292.8 247.917686 
L 295.776 232.645813 
L 298.752 232.187511 
L 301.728 227.101814 
L 304.704 228.003638 
L 307.68 224.42591 
L 310.656 221.439542 
L 313.632 219.857654 
L 316.608 218.571446 
L 319.584 218.231414 
L 322.56 212.731766 
L 325.536 213.175286 
L 328.512 211.120311 
L 331.488 213.485749 
L 334.464 209.893237 
L 337.44 210.662005 
L 340.416 210.026293 
L 343.392 207.882612 
L 346.368 208.370485 
L 349.344 207.039925 
L 352.32 205.073652 
L 355.296 208.119156 
L 358.272 203.743094 
L 361.248 201.392436 
L 364.224 202.841269 
L 367.2 205.295413 
L 370.176 202.885619 
L 373.152 198.967861 
L 376.128 200.534964 
L 379.104 200.416692 
L 382.08 199.721845 
L 385.056 200.268852 
L 388.032 199.78098 
L 391.008 199.426164 
L 393.984 196.912884 
L 396.96 194.917043 
L 399.936 196.336308 
L 402.912 197.578164 
L 408.864 194.976179 
L 411.84 194.42917 
L 414.816 193.571699 
L 417.792 194.192626 
L 423.744 193.009907 
L 426.72 192.699443 
L 429.696 191.960243 
L 432.672 188.057267 
L 435.648 191.856755 
L 438.624 190.053106 
L 441.6 187.465905 
L 444.576 189.32869 
L 447.552 189.801779 
L 450.528 190.733171 
L 453.504 188.042482 
L 456.48 185.011761 
L 459.456 184.30213 
L 462.432 187.820723 
L 465.408 185.588338 
L 468.384 185.233523 
L 471.36 185.04133 
L 474.336 183.755121 
L 477.312 183.48901 
L 480.288 184.790002 
L 483.264 182.720242 
L 486.24 181.153139 
L 489.216 182.365426 
L 492.192 182.114099 
L 495.168 182.912432 
L 498.144 179.127729 
L 504.096 180.561778 
L 507.072 180.709616 
L 510.048 177.604976 
L 513.024 179.911282 
L 516 179.452977 
L 518.976 177.412784 
L 521.952 178.078065 
L 524.928 177.383217 
L 527.904 178.255473 
L 530.88 172.489713 
L 533.856 175.431728 
L 536.832 174.869937 
L 539.808 172.9628 
L 542.784 174.455985 
L 545.76 173.40632 
L 548.736 172.120112 
L 551.712 172.489713 
L 554.688 171.868783 
L 557.664 172.460145 
L 560.64 171.720944 
L 563.616 169.932078 
L 566.592 172.327088 
L 569.568 167.951024 
L 572.544 172.622769 
L 575.52 169.739888 
L 578.496 170.183407 
L 581.472 170.15384 
L 584.448 168.054512 
L 587.424 166.857008 
L 590.4 166.871794 
L 593.376 168.039729 
L 596.352 165.142063 
L 599.328 164.609839 
L 602.304 167.270959 
L 605.28 167.936239 
L 608.256 165.585583 
L 611.232 164.284592 
L 614.208 166.886575 
L 617.184 162.880111 
L 620.16 162.333103 
L 623.136 163.959344 
L 629.088 159.642413 
L 632.064 160.677295 
L 638.016 159.568494 
L 640.992 160.159854 
L 643.968 156.789101 
L 646.944 159.864175 
L 649.92 155.517678 
L 652.896 157.912685 
L 655.872 156.552559 
L 658.848 155.562031 
L 661.824 156.685614 
L 667.776 155.769006 
L 670.752 155.842927 
L 673.728 154.246254 
L 676.704 156.478639 
L 679.68 155.576815 
L 682.656 155.41419 
L 685.632 152.75307 
L 688.608 152.368687 
L 691.584 151.230317 
L 694.56 153.093103 
L 697.536 154.808046 
L 700.512 150.624174 
L 703.488 152.413039 
L 706.464 150.520685 
L 709.44 148.14046 
L 712.416 148.761391 
L 715.392 148.051759 
L 718.368 146.484655 
L 721.344 147.194286 
L 724.32 146.455085 
L 727.296 145.405421 
L 730.272 148.657903 
L 733.248 144.887982 
L 736.224 143.882669 
L 739.2 144.414894 
L 742.176 142.241646 
L 745.152 144.76971 
L 748.128 142.566893 
L 751.104 144.015723 
L 754.08 140.083183 
L 757.056 140.630191 
L 760.032 139.477036 
L 763.008 141.103277 
L 765.984 139.491821 
L 768.96 137.42206 
L 771.936 138.205614 
L 774.912 138.161261 
L 777.888 137.998637 
L 780.864 135.97323 
L 783.84 136.061934 
L 786.816 136.461101 
L 789.792 137.732525 
L 792.768 135.322734 
L 795.744 135.352301 
L 798.72 135.130542 
L 801.696 133.666926 
L 804.672 133.79998 
L 807.648 132.425068 
L 810.624 130.606638 
L 813.6 131.597166 
L 816.576 131.700652 
L 819.552 130.399663 
L 822.528 132.587693 
L 825.504 129.645678 
L 828.48 129.379567 
L 831.456 129.468268 
L 834.432 128.418606 
L 837.408 128.093359 
L 840.384 126.245359 
L 843.36 127.782894 
L 846.336 125.905325 
L 849.312 125.240046 
L 852.288 126.230573 
L 855.264 124.012975 
L 858.24 124.131245 
L 861.216 123.140718 
L 864.192 124.486061 
L 867.168 121.366636 
L 870.144 122.756333 
L 873.12 120.657005 
L 879.072 121.721454 
L 882.048 120.627438 
L 885.024 119.991728 
L 888 118.646382 
L 890.976 119.296878 
L 893.952 117.404527 
L 896.928 118.468974 
L 899.904 117.552367 
L 902.88 116.044399 
L 905.856 117.330606 
L 908.832 116.044398 
L 911.808 115.852205 
L 914.784 116.207022 
L 917.76 115.113005 
L 920.736 115.05387 
L 923.712 115.260843 
L 926.688 113.64939 
L 929.664 113.220653 
L 932.64 113.368495 
L 935.616 112.570158 
L 938.592 112.954541 
L 941.568 111.890094 
L 944.544 111.609197 
L 947.52 112.037934 
L 950.496 112.170988 
L 953.472 112.658862 
L 956.448 110.456045 
L 959.424 111.047407 
L 962.4 110.677804 
L 965.376 110.855214 
L 968.352 110.293421 
L 971.328 109.864685 
L 974.304 109.199405 
L 977.28 109.598573 
L 980.256 109.43595 
L 983.232 108.770669 
L 986.208 108.312366 
L 989.184 108.090604 
L 992.16 108.430637 
L 995.136 108.10539 
L 998.112 108.593261 
L 1001.088 108.253229 
L 1004.064 108.711534 
L 1007.04 108.179309 
L 1010.016 108.341933 
L 1012.992 108.016686 
L 1015.968 108.238445 
L 1018.944 107.913197 
L 1027.872 107.839277 
L 1030.848 107.735789 
L 1033.824 107.78014 
L 1033.824 107.78014 
" clip-path="url(#p542a801a0d)" style="fill: none; stroke: #eb9b78; stroke-width: 1.5; stroke-linecap: square"/>
   </g>
   <g id="patch_3">
    <path d="M 144 512.64 
L 144 69.12 
" style="fill: none; stroke: #000000; stroke-width: 0.8; stroke-linejoin: miter; stroke-linecap: square"/>
   </g>
   <g id="patch_4">
    <path d="M 1036.8 512.64 
L 1036.8 69.12 
" style="fill: none; stroke: #000000; stroke-width: 0.8; stroke-linejoin: miter; stroke-linecap: square"/>
   </g>
   <g id="patch_5">
    <path d="M 144 512.64 
L 1036.8 512.64 
" style="fill: none; stroke: #000000; stroke-width: 0.8; stroke-linejoin: miter; stroke-linecap: square"/>
   </g>
   <g id="patch_6">
    <path d="M 144 69.12 
L 1036.8 69.12 
" style="fill: none; stroke: #000000; stroke-width: 0.8; stroke-linejoin: miter; stroke-linecap: square"/>
   </g>
   <g id="legend_1">
    <g id="patch_7">
     <path d="M 790.9425 346.42125 
L 1024.2 346.42125 
Q 1027.8 346.42125 1027.8 342.82125 
L 1027.8 238.93875 
Q 1027.8 235.33875 1024.2 235.33875 
L 790.9425 235.33875 
Q 787.3425 235.33875 787.3425 238.93875 
L 787.3425 342.82125 
Q 787.3425 346.42125 790.9425 346.42125 
z
" style="fill: #ffffff; opacity: 0.8; stroke: #cccccc; stroke-linejoin: miter"/>
    </g>
    <g id="line2d_16">
     <path d="M 794.5425 249.915937 
L 812.5425 249.915937 
L 830.5425 249.915937 
" style="fill: none; stroke: #0071bc; stroke-width: 1.5; stroke-linecap: square"/>
    </g>
    <g id="text_16">
     <!-- baseline test acc -->
     <g transform="translate(844.9425 256.215937)scale(0.18 -0.18)">
      <defs>
       <path id="DejaVuSans-62" d="M 3116 1747 
Q 3116 2381 2855 2742 
Q 2594 3103 2138 3103 
Q 1681 3103 1420 2742 
Q 1159 2381 1159 1747 
Q 1159 1113 1420 752 
Q 1681 391 2138 391 
Q 2594 391 2855 752 
Q 3116 1113 3116 1747 
z
M 1159 2969 
Q 1341 3281 1617 3432 
Q 1894 3584 2278 3584 
Q 2916 3584 3314 3078 
Q 3713 2572 3713 1747 
Q 3713 922 3314 415 
Q 2916 -91 2278 -91 
Q 1894 -91 1617 61 
Q 1341 213 1159 525 
L 1159 0 
L 581 0 
L 581 4863 
L 1159 4863 
L 1159 2969 
z
" transform="scale(0.015625)"/>
       <path id="DejaVuSans-6c" d="M 603 4863 
L 1178 4863 
L 1178 0 
L 603 0 
L 603 4863 
z
" transform="scale(0.015625)"/>
       <path id="DejaVuSans-69" d="M 603 3500 
L 1178 3500 
L 1178 0 
L 603 0 
L 603 3500 
z
M 603 4863 
L 1178 4863 
L 1178 4134 
L 603 4134 
L 603 4863 
z
" transform="scale(0.015625)"/>
       <path id="DejaVuSans-6e" d="M 3513 2113 
L 3513 0 
L 2938 0 
L 2938 2094 
Q 2938 2591 2744 2837 
Q 2550 3084 2163 3084 
Q 1697 3084 1428 2787 
Q 1159 2491 1159 1978 
L 1159 0 
L 581 0 
L 581 3500 
L 1159 3500 
L 1159 2956 
Q 1366 3272 1645 3428 
Q 1925 3584 2291 3584 
Q 2894 3584 3203 3211 
Q 3513 2838 3513 2113 
z
" transform="scale(0.015625)"/>
       <path id="DejaVuSans-74" d="M 1172 4494 
L 1172 3500 
L 2356 3500 
L 2356 3053 
L 1172 3053 
L 1172 1153 
Q 1172 725 1289 603 
Q 1406 481 1766 481 
L 2356 481 
L 2356 0 
L 1766 0 
Q 1100 0 847 248 
Q 594 497 594 1153 
L 594 3053 
L 172 3053 
L 172 3500 
L 594 3500 
L 594 4494 
L 1172 4494 
z
" transform="scale(0.015625)"/>
      </defs>
      <use xlink:href="#DejaVuSans-62"/>
      <use xlink:href="#DejaVuSans-61" x="63.476562"/>
      <use xlink:href="#DejaVuSans-73" x="124.755859"/>
      <use xlink:href="#DejaVuSans-65" x="176.855469"/>
      <use xlink:href="#DejaVuSans-6c" x="238.378906"/>
      <use xlink:href="#DejaVuSans-69" x="266.162109"/>
      <use xlink:href="#DejaVuSans-6e" x="293.945312"/>
      <use xlink:href="#DejaVuSans-65" x="357.324219"/>
      <use xlink:href="#DejaVuSans-20" x="418.847656"/>
      <use xlink:href="#DejaVuSans-74" x="450.634766"/>
      <use xlink:href="#DejaVuSans-65" x="489.84375"/>
      <use xlink:href="#DejaVuSans-73" x="551.367188"/>
      <use xlink:href="#DejaVuSans-74" x="603.466797"/>
      <use xlink:href="#DejaVuSans-20" x="642.675781"/>
      <use xlink:href="#DejaVuSans-61" x="674.462891"/>
      <use xlink:href="#DejaVuSans-63" x="735.742188"/>
      <use xlink:href="#DejaVuSans-63" x="790.722656"/>
     </g>
    </g>
    <g id="line2d_17">
     <path d="M 794.5425 276.336562 
L 812.5425 276.336562 
L 830.5425 276.336562 
" style="fill: none; stroke: #eb9b78; stroke-width: 1.5; stroke-linecap: square"/>
    </g>
    <g id="text_17">
     <!-- soft mask test acc -->
     <g transform="translate(844.9425 282.636562)scale(0.18 -0.18)">
      <defs>
       <path id="DejaVuSans-66" d="M 2375 4863 
L 2375 4384 
L 1825 4384 
Q 1516 4384 1395 4259 
Q 1275 4134 1275 3809 
L 1275 3500 
L 2222 3500 
L 2222 3053 
L 1275 3053 
L 1275 0 
L 697 0 
L 697 3053 
L 147 3053 
L 147 3500 
L 697 3500 
L 697 3744 
Q 697 4328 969 4595 
Q 1241 4863 1831 4863 
L 2375 4863 
z
" transform="scale(0.015625)"/>
       <path id="DejaVuSans-6d" d="M 3328 2828 
Q 3544 3216 3844 3400 
Q 4144 3584 4550 3584 
Q 5097 3584 5394 3201 
Q 5691 2819 5691 2113 
L 5691 0 
L 5113 0 
L 5113 2094 
Q 5113 2597 4934 2840 
Q 4756 3084 4391 3084 
Q 3944 3084 3684 2787 
Q 3425 2491 3425 1978 
L 3425 0 
L 2847 0 
L 2847 2094 
Q 2847 2600 2669 2842 
Q 2491 3084 2119 3084 
Q 1678 3084 1418 2786 
Q 1159 2488 1159 1978 
L 1159 0 
L 581 0 
L 581 3500 
L 1159 3500 
L 1159 2956 
Q 1356 3278 1631 3431 
Q 1906 3584 2284 3584 
Q 2666 3584 2933 3390 
Q 3200 3197 3328 2828 
z
" transform="scale(0.015625)"/>
       <path id="DejaVuSans-6b" d="M 581 4863 
L 1159 4863 
L 1159 1991 
L 2875 3500 
L 3609 3500 
L 1753 1863 
L 3688 0 
L 2938 0 
L 1159 1709 
L 1159 0 
L 581 0 
L 581 4863 
z
" transform="scale(0.015625)"/>
      </defs>
      <use xlink:href="#DejaVuSans-73"/>
      <use xlink:href="#DejaVuSans-6f" x="52.099609"/>
      <use xlink:href="#DejaVuSans-66" x="113.28125"/>
      <use xlink:href="#DejaVuSans-74" x="146.736328"/>
      <use xlink:href="#DejaVuSans-20" x="185.945312"/>
      <use xlink:href="#DejaVuSans-6d" x="217.732422"/>
      <use xlink:href="#DejaVuSans-61" x="315.144531"/>
      <use xlink:href="#DejaVuSans-73" x="376.423828"/>
      <use xlink:href="#DejaVuSans-6b" x="428.523438"/>
      <use xlink:href="#DejaVuSans-20" x="486.433594"/>
      <use xlink:href="#DejaVuSans-74" x="518.220703"/>
      <use xlink:href="#DejaVuSans-65" x="557.429688"/>
      <use xlink:href="#DejaVuSans-73" x="618.953125"/>
      <use xlink:href="#DejaVuSans-74" x="671.052734"/>
      <use xlink:href="#DejaVuSans-20" x="710.261719"/>
      <use xlink:href="#DejaVuSans-61" x="742.048828"/>
      <use xlink:href="#DejaVuSans-63" x="803.328125"/>
      <use xlink:href="#DejaVuSans-63" x="858.308594"/>
     </g>
    </g>
    <g id="line2d_18">
     <path d="M 794.5425 302.757187 
L 812.5425 302.757187 
L 830.5425 302.757187 
" style="fill: none; stroke-dasharray: 5.55,2.4; stroke-dashoffset: 0; stroke: #0071bc; stroke-width: 1.5"/>
    </g>
    <g id="text_18">
     <!-- baseline train loss -->
     <g transform="translate(844.9425 309.057187)scale(0.18 -0.18)">
      <use xlink:href="#DejaVuSans-62"/>
      <use xlink:href="#DejaVuSans-61" x="63.476562"/>
      <use xlink:href="#DejaVuSans-73" x="124.755859"/>
      <use xlink:href="#DejaVuSans-65" x="176.855469"/>
      <use xlink:href="#DejaVuSans-6c" x="238.378906"/>
      <use xlink:href="#DejaVuSans-69" x="266.162109"/>
      <use xlink:href="#DejaVuSans-6e" x="293.945312"/>
      <use xlink:href="#DejaVuSans-65" x="357.324219"/>
      <use xlink:href="#DejaVuSans-20" x="418.847656"/>
      <use xlink:href="#DejaVuSans-74" x="450.634766"/>
      <use xlink:href="#DejaVuSans-72" x="489.84375"/>
      <use xlink:href="#DejaVuSans-61" x="530.957031"/>
      <use xlink:href="#DejaVuSans-69" x="592.236328"/>
      <use xlink:href="#DejaVuSans-6e" x="620.019531"/>
      <use xlink:href="#DejaVuSans-20" x="683.398438"/>
      <use xlink:href="#DejaVuSans-6c" x="715.185547"/>
      <use xlink:href="#DejaVuSans-6f" x="742.96875"/>
      <use xlink:href="#DejaVuSans-73" x="804.150391"/>
      <use xlink:href="#DejaVuSans-73" x="856.25"/>
     </g>
    </g>
    <g id="line2d_19">
     <path d="M 794.5425 329.177812 
L 812.5425 329.177812 
L 830.5425 329.177812 
" style="fill: none; stroke-dasharray: 5.55,2.4; stroke-dashoffset: 0; stroke: #eb9b78; stroke-width: 1.5"/>
    </g>
    <g id="text_19">
     <!-- soft mask train loss -->
     <g transform="translate(844.9425 335.477812)scale(0.18 -0.18)">
      <use xlink:href="#DejaVuSans-73"/>
      <use xlink:href="#DejaVuSans-6f" x="52.099609"/>
      <use xlink:href="#DejaVuSans-66" x="113.28125"/>
      <use xlink:href="#DejaVuSans-74" x="146.736328"/>
      <use xlink:href="#DejaVuSans-20" x="185.945312"/>
      <use xlink:href="#DejaVuSans-6d" x="217.732422"/>
      <use xlink:href="#DejaVuSans-61" x="315.144531"/>
      <use xlink:href="#DejaVuSans-73" x="376.423828"/>
      <use xlink:href="#DejaVuSans-6b" x="428.523438"/>
      <use xlink:href="#DejaVuSans-20" x="486.433594"/>
      <use xlink:href="#DejaVuSans-74" x="518.220703"/>
      <use xlink:href="#DejaVuSans-72" x="557.429688"/>
      <use xlink:href="#DejaVuSans-61" x="598.542969"/>
      <use xlink:href="#DejaVuSans-69" x="659.822266"/>
      <use xlink:href="#DejaVuSans-6e" x="687.605469"/>
      <use xlink:href="#DejaVuSans-20" x="750.984375"/>
      <use xlink:href="#DejaVuSans-6c" x="782.771484"/>
      <use xlink:href="#DejaVuSans-6f" x="810.554688"/>
      <use xlink:href="#DejaVuSans-73" x="871.736328"/>
      <use xlink:href="#DejaVuSans-73" x="923.835938"/>
     </g>
    </g>
   </g>
  </g>
  <g id="axes_2">
   <g id="matplotlib.axis_3">
    <g id="ytick_7">
     <g id="line2d_20">
      <defs>
       <path id="m02bb177235" d="M 0 0 
L 3.5 0 
" style="stroke: #000000; stroke-width: 0.8"/>
      </defs>
      <g>
       <use xlink:href="#m02bb177235" x="1036.8" y="457.2" style="stroke: #000000; stroke-width: 0.8"/>
      </g>
     </g>
     <g id="text_20">
      <!-- 3 -->
      <g transform="translate(1043.8 466.318125)scale(0.24 -0.24)">
       <use xlink:href="#DejaVuSans-33"/>
      </g>
     </g>
    </g>
    <g id="ytick_8">
     <g id="line2d_21">
      <g>
       <use xlink:href="#m02bb177235" x="1036.8" y="346.32" style="stroke: #000000; stroke-width: 0.8"/>
      </g>
     </g>
     <g id="text_21">
      <!-- 4 -->
      <g transform="translate(1043.8 355.438125)scale(0.24 -0.24)">
       <use xlink:href="#DejaVuSans-34"/>
      </g>
     </g>
    </g>
    <g id="ytick_9">
     <g id="line2d_22">
      <g>
       <use xlink:href="#m02bb177235" x="1036.8" y="235.44" style="stroke: #000000; stroke-width: 0.8"/>
      </g>
     </g>
     <g id="text_22">
      <!-- 5 -->
      <g transform="translate(1043.8 244.558125)scale(0.24 -0.24)">
       <use xlink:href="#DejaVuSans-35"/>
      </g>
     </g>
    </g>
    <g id="ytick_10">
     <g id="line2d_23">
      <g>
       <use xlink:href="#m02bb177235" x="1036.8" y="124.56" style="stroke: #000000; stroke-width: 0.8"/>
      </g>
     </g>
     <g id="text_23">
      <!-- 6 -->
      <g transform="translate(1043.8 133.678125)scale(0.24 -0.24)">
       <use xlink:href="#DejaVuSans-36"/>
      </g>
     </g>
    </g>
    <g id="text_24">
     <!-- train loss -->
     <g transform="translate(1081.30625 345.8025)rotate(-90)scale(0.24 -0.24)">
      <use xlink:href="#DejaVuSans-74"/>
      <use xlink:href="#DejaVuSans-72" x="39.208984"/>
      <use xlink:href="#DejaVuSans-61" x="80.322266"/>
      <use xlink:href="#DejaVuSans-69" x="141.601562"/>
      <use xlink:href="#DejaVuSans-6e" x="169.384766"/>
      <use xlink:href="#DejaVuSans-20" x="232.763672"/>
      <use xlink:href="#DejaVuSans-6c" x="264.550781"/>
      <use xlink:href="#DejaVuSans-6f" x="292.333984"/>
      <use xlink:href="#DejaVuSans-73" x="353.515625"/>
      <use xlink:href="#DejaVuSans-73" x="405.615234"/>
     </g>
    </g>
   </g>
   <g id="line2d_24">
    <path d="M 144 27.280823 
L 146.976 54.356635 
L 149.952 88.656316 
L 152.928 112.846794 
L 155.904 134.460518 
L 158.88 152.487829 
L 161.856 173.143113 
L 164.832 186.761673 
L 167.808 204.288774 
L 170.784 217.718292 
L 176.736 238.462333 
L 179.712 244.319943 
L 182.688 259.721401 
L 185.664 268.510255 
L 188.64 273.068032 
L 191.616 281.006513 
L 194.592 287.87507 
L 197.568 291.946701 
L 200.544 297.65612 
L 203.52 302.520552 
L 206.496 302.114568 
L 209.472 306.787232 
L 212.448 315.161041 
L 215.424 315.065823 
L 218.4 318.35583 
L 221.376 300.455376 
L 224.352 322.04774 
L 227.328 326.963801 
L 230.304 328.30133 
L 233.28 327.930054 
L 236.256 331.334601 
L 239.232 330.649524 
L 242.208 333.648724 
L 245.184 336.34117 
L 248.16 337.471813 
L 251.136 340.553894 
L 254.112 339.70477 
L 257.088 341.381587 
L 260.064 343.258014 
L 263.04 343.892112 
L 266.016 344.732038 
L 268.992 344.026787 
L 271.968 346.558654 
L 274.944 347.254339 
L 277.92 346.804951 
L 280.896 347.872848 
L 283.872 349.76826 
L 286.848 347.465933 
L 289.824 349.691162 
L 292.8 350.580847 
L 295.776 349.785095 
L 298.752 353.51008 
L 301.728 353.267024 
L 304.704 356.705658 
L 307.68 356.048699 
L 310.656 357.570868 
L 313.632 359.987266 
L 316.608 357.786434 
L 319.584 359.14524 
L 322.56 359.758097 
L 325.536 361.299999 
L 328.512 362.353433 
L 331.488 362.704085 
L 334.464 363.993672 
L 337.44 364.513049 
L 340.416 364.280024 
L 343.392 365.454233 
L 346.368 367.792012 
L 349.344 366.199096 
L 352.32 367.848529 
L 355.296 366.917175 
L 361.248 369.627939 
L 364.224 371.31611 
L 367.2 369.896925 
L 370.176 370.254477 
L 373.152 369.643793 
L 376.128 370.896451 
L 379.104 372.276845 
L 382.08 372.140009 
L 385.056 372.539308 
L 388.032 373.737853 
L 393.984 373.303051 
L 396.96 374.467706 
L 399.936 374.95556 
L 402.912 375.658768 
L 405.888 376.870639 
L 408.864 376.920791 
L 411.84 376.718173 
L 414.816 377.305346 
L 417.792 378.697367 
L 420.768 379.591731 
L 423.744 378.782754 
L 426.72 380.077807 
L 429.696 381.039331 
L 432.672 379.539924 
L 435.648 378.868729 
L 438.624 381.542317 
L 441.6 382.111287 
L 444.576 383.308192 
L 447.552 381.29783 
L 450.528 380.539665 
L 453.504 382.683943 
L 456.48 384.294214 
L 459.456 383.550096 
L 462.432 382.928594 
L 465.408 383.313032 
L 468.384 382.527012 
L 471.36 384.358111 
L 474.336 385.588278 
L 477.312 384.980979 
L 480.288 385.19802 
L 483.264 383.842913 
L 486.24 385.668969 
L 489.216 385.803171 
L 492.192 386.898744 
L 495.168 386.676217 
L 498.144 387.227216 
L 501.12 388.099205 
L 504.096 387.603572 
L 507.072 387.352882 
L 510.048 389.404557 
L 516 389.957559 
L 518.976 388.580164 
L 521.952 389.564977 
L 524.928 391.803852 
L 527.904 390.303598 
L 530.88 389.927779 
L 533.856 391.78518 
L 536.832 391.007148 
L 539.808 393.465292 
L 542.784 392.010664 
L 545.76 391.018972 
L 548.736 393.939888 
L 551.712 393.109597 
L 554.688 394.385945 
L 557.664 394.853746 
L 560.64 395.055171 
L 563.616 394.549261 
L 566.592 397.127002 
L 569.568 395.73936 
L 572.544 396.212416 
L 575.52 396.235981 
L 578.496 395.836593 
L 581.472 397.098061 
L 584.448 396.564723 
L 587.424 398.584546 
L 590.4 397.064754 
L 593.376 399.225317 
L 596.352 398.377979 
L 599.328 401.361815 
L 602.304 400.11908 
L 605.28 400.460399 
L 608.256 400.943959 
L 611.232 401.589706 
L 614.208 398.69719 
L 617.184 400.828426 
L 620.16 401.203208 
L 623.136 402.354795 
L 626.112 402.448768 
L 629.088 401.770564 
L 632.064 403.859843 
L 635.04 404.93371 
L 640.992 404.664901 
L 643.968 406.21072 
L 646.944 405.815361 
L 649.92 406.050954 
L 652.896 405.601306 
L 655.872 406.288331 
L 658.848 405.816051 
L 661.824 405.78438 
L 664.8 407.725282 
L 667.776 408.845425 
L 670.752 408.828975 
L 673.728 408.604992 
L 676.704 410.403906 
L 679.68 409.782857 
L 682.656 411.05798 
L 685.632 410.504125 
L 688.608 412.374091 
L 691.584 412.836513 
L 694.56 412.005238 
L 697.536 412.312585 
L 700.512 414.439284 
L 703.488 413.157849 
L 706.464 414.077947 
L 709.44 414.446978 
L 712.416 416.197795 
L 715.392 415.922383 
L 718.368 417.760146 
L 721.344 415.947581 
L 724.32 416.933469 
L 727.296 417.30895 
L 730.272 417.870497 
L 733.248 418.665327 
L 736.224 418.515599 
L 739.2 419.983349 
L 742.176 420.108995 
L 745.152 418.491128 
L 748.128 420.907008 
L 751.104 421.518729 
L 754.08 421.258725 
L 760.032 422.47314 
L 763.008 422.939373 
L 765.984 425.65625 
L 768.96 425.221352 
L 771.936 423.763592 
L 774.912 423.523779 
L 777.888 425.240699 
L 780.864 427.497184 
L 783.84 426.090652 
L 786.816 428.571328 
L 789.792 427.243516 
L 795.744 428.437502 
L 798.72 430.673746 
L 801.696 429.97203 
L 804.672 431.798645 
L 807.648 430.504966 
L 810.624 431.394452 
L 813.6 432.066713 
L 819.552 433.002829 
L 822.528 433.191341 
L 825.504 434.630353 
L 828.48 434.728699 
L 831.456 433.503852 
L 834.432 435.651934 
L 837.408 436.43183 
L 840.384 435.903594 
L 843.36 436.795877 
L 846.336 437.503473 
L 849.312 437.948779 
L 852.288 441.189035 
L 858.24 438.791315 
L 861.216 438.48663 
L 864.192 440.383707 
L 867.168 442.643868 
L 873.12 441.750316 
L 876.096 443.108819 
L 879.072 442.773102 
L 882.048 442.853343 
L 885.024 444.425862 
L 888 444.890501 
L 890.976 447.191662 
L 893.952 445.956151 
L 896.928 446.874988 
L 899.904 447.645256 
L 902.88 448.021005 
L 905.856 448.555271 
L 908.832 446.853145 
L 911.808 449.037255 
L 914.784 450.49644 
L 917.76 450.940697 
L 920.736 449.442015 
L 923.712 450.913229 
L 926.688 449.022799 
L 929.664 450.73179 
L 932.64 451.673867 
L 935.616 450.774955 
L 938.592 452.591282 
L 941.568 451.850084 
L 944.544 454.374349 
L 947.52 453.58911 
L 950.496 454.902791 
L 953.472 455.803585 
L 956.448 454.222421 
L 959.424 454.147716 
L 962.4 454.296161 
L 965.376 455.243472 
L 968.352 455.771856 
L 971.328 455.884984 
L 977.28 456.64776 
L 980.256 455.67795 
L 983.232 456.829771 
L 986.208 458.882357 
L 989.184 456.953682 
L 992.16 458.022228 
L 995.136 457.673 
L 998.112 457.749657 
L 1001.088 458.458353 
L 1004.064 459.68253 
L 1007.04 457.624729 
L 1010.016 458.016325 
L 1012.992 457.067093 
L 1015.968 458.18336 
L 1018.944 458.592785 
L 1021.92 458.730907 
L 1024.896 458.268534 
L 1027.872 458.941247 
L 1030.848 458.320965 
L 1033.824 457.561193 
L 1033.824 457.561193 
" clip-path="url(#p542a801a0d)" style="fill: none; stroke-dasharray: 5.55,2.4; stroke-dashoffset: 0; stroke: #0071bc; stroke-width: 1.5"/>
   </g>
   <g id="line2d_25">
    <path d="M 144 27.308531 
L 146.976 53.605035 
L 149.952 87.666395 
L 155.904 135.999449 
L 158.88 158.711014 
L 161.856 177.199338 
L 164.832 196.671804 
L 167.808 210.785653 
L 170.784 225.963928 
L 173.76 229.468657 
L 176.736 249.51929 
L 179.712 260.8714 
L 185.664 279.864429 
L 188.64 284.77079 
L 191.616 292.811002 
L 194.592 298.791523 
L 197.568 306.038304 
L 200.544 310.855613 
L 203.52 314.474121 
L 206.496 319.867206 
L 209.472 324.503794 
L 212.448 330.543924 
L 215.424 332.595975 
L 218.4 334.2644 
L 221.376 336.334599 
L 224.352 339.972967 
L 227.328 344.42888 
L 230.304 345.598518 
L 233.28 346.635639 
L 236.256 349.837104 
L 242.208 352.127432 
L 245.184 355.105933 
L 248.16 356.193362 
L 251.136 359.27118 
L 254.112 359.029689 
L 260.064 362.065368 
L 266.016 363.861012 
L 268.992 362.722114 
L 271.968 365.566985 
L 274.944 367.195666 
L 277.92 368.109052 
L 280.896 367.011229 
L 283.872 368.5256 
L 286.848 366.859995 
L 289.824 368.599975 
L 292.8 278.324074 
L 295.776 342.412908 
L 298.752 349.779683 
L 301.728 351.836151 
L 304.704 355.87837 
L 307.68 356.173675 
L 313.632 360.710542 
L 316.608 360.078764 
L 319.584 360.303407 
L 322.56 360.937756 
L 325.536 363.243728 
L 328.512 364.509325 
L 331.488 365.410385 
L 337.44 366.865074 
L 340.416 367.091436 
L 343.392 368.538091 
L 346.368 370.575542 
L 349.344 368.630168 
L 352.32 370.92947 
L 355.296 371.080905 
L 358.272 371.581349 
L 364.224 374.033989 
L 367.2 373.031367 
L 370.176 373.522018 
L 373.152 373.443493 
L 376.128 374.398255 
L 379.104 375.583103 
L 382.08 375.865934 
L 385.056 376.01083 
L 388.032 377.079948 
L 391.008 377.364875 
L 393.984 376.837546 
L 396.96 378.050753 
L 399.936 378.632279 
L 402.912 379.370843 
L 405.888 380.545145 
L 411.84 380.534703 
L 414.816 381.1974 
L 417.792 381.408848 
L 420.768 383.774041 
L 423.744 382.68681 
L 429.696 384.882356 
L 432.672 383.380242 
L 435.648 382.737471 
L 438.624 385.257874 
L 441.6 385.476642 
L 444.576 386.99031 
L 447.552 385.228173 
L 450.528 384.679061 
L 453.504 386.584498 
L 456.48 388.068622 
L 459.456 387.261356 
L 462.432 386.656404 
L 465.408 387.344425 
L 468.384 386.487006 
L 471.36 388.197903 
L 474.336 389.719533 
L 477.312 388.751533 
L 480.288 389.435341 
L 483.264 387.787422 
L 486.24 389.816269 
L 489.216 389.742638 
L 492.192 390.802517 
L 495.168 390.747014 
L 498.144 391.27152 
L 501.12 392.083643 
L 507.072 391.142146 
L 510.048 393.591735 
L 513.024 393.50648 
L 516 394.276369 
L 518.976 391.988089 
L 521.952 393.544111 
L 524.928 395.960443 
L 527.904 394.366635 
L 530.88 393.91568 
L 533.856 396.014312 
L 536.832 395.152848 
L 539.808 397.518507 
L 542.784 396.090174 
L 545.76 394.95259 
L 548.736 397.867658 
L 551.712 397.23645 
L 554.688 398.564726 
L 557.664 398.705961 
L 560.64 399.073516 
L 563.616 398.583464 
L 566.592 401.159823 
L 569.568 399.620578 
L 572.544 400.245319 
L 575.52 400.405198 
L 578.496 399.870719 
L 581.472 401.044658 
L 584.448 400.652774 
L 587.424 402.579676 
L 590.4 400.993763 
L 593.376 403.046106 
L 596.352 402.200982 
L 599.328 405.081279 
L 602.304 404.320936 
L 605.28 404.601502 
L 608.256 405.183303 
L 611.232 405.626725 
L 614.208 402.953685 
L 617.184 405.105 
L 620.16 405.210192 
L 623.136 406.563708 
L 626.112 406.527522 
L 629.088 405.798546 
L 632.064 407.773427 
L 635.04 408.68068 
L 638.016 408.855937 
L 640.992 408.753985 
L 643.968 410.218379 
L 646.944 409.651782 
L 649.92 410.344535 
L 652.896 409.578703 
L 655.872 410.357766 
L 658.848 409.786168 
L 661.824 409.788105 
L 664.8 411.796984 
L 667.776 412.766758 
L 670.752 412.886957 
L 673.728 412.605233 
L 676.704 414.486836 
L 679.68 413.915959 
L 682.656 415.154607 
L 685.632 414.459505 
L 688.608 416.342104 
L 691.584 416.938785 
L 694.56 416.095867 
L 697.536 418.69797 
L 700.512 416.331562 
L 703.488 417.297364 
L 706.464 418.733464 
L 709.44 418.166332 
L 712.416 420.337013 
L 715.392 417.320788 
L 718.368 421.033816 
L 721.344 420.419031 
L 724.32 420.426175 
L 727.296 422.501299 
L 730.272 423.147558 
L 733.248 423.112897 
L 736.224 422.160662 
L 739.2 423.125548 
L 742.176 422.689184 
L 745.152 423.42136 
L 748.128 425.155119 
L 751.104 425.778798 
L 754.08 426.181426 
L 757.056 426.957813 
L 760.032 426.051167 
L 763.008 426.466269 
L 765.984 428.941541 
L 768.96 428.532875 
L 771.936 428.87924 
L 774.912 428.53627 
L 780.864 431.574702 
L 783.84 431.972134 
L 786.816 431.558815 
L 789.792 431.264099 
L 792.768 432.348259 
L 795.744 433.64335 
L 798.72 433.523263 
L 801.696 434.701982 
L 804.672 436.707082 
L 807.648 436.493181 
L 810.624 433.717529 
L 813.6 437.221518 
L 816.576 435.743725 
L 819.552 438.062128 
L 822.528 438.331934 
L 825.504 436.099633 
L 828.48 438.914539 
L 831.456 439.393645 
L 834.432 438.68221 
L 837.408 440.090207 
L 840.384 441.250552 
L 843.36 440.415059 
L 846.336 441.552985 
L 849.312 442.254841 
L 852.288 442.679425 
L 855.264 442.602579 
L 858.24 444.484555 
L 861.216 442.946292 
L 864.192 444.152293 
L 867.168 445.6372 
L 873.12 446.867635 
L 876.096 446.090249 
L 879.072 446.416227 
L 882.048 449.1157 
L 885.024 448.172316 
L 888 448.784447 
L 890.976 449.640533 
L 893.952 451.909811 
L 896.928 450.553762 
L 899.904 449.928701 
L 902.88 451.227204 
L 905.856 452.041381 
L 908.832 452.679717 
L 914.784 453.318723 
L 917.76 453.058734 
L 920.736 454.279986 
L 923.712 455.162906 
L 926.688 456.402538 
L 932.64 456.437569 
L 935.616 456.065202 
L 938.592 456.267408 
L 941.568 457.218732 
L 944.544 456.965443 
L 947.52 458.521664 
L 950.496 458.972736 
L 953.472 458.063454 
L 956.448 459.047619 
L 962.4 460.363885 
L 965.376 462.039094 
L 968.352 457.749392 
L 971.328 461.482925 
L 974.304 461.179198 
L 977.28 461.79236 
L 980.256 461.210315 
L 983.232 459.86773 
L 986.208 462.814417 
L 989.184 462.826199 
L 992.16 461.936311 
L 995.136 462.195098 
L 998.112 462.903655 
L 1001.088 464.707937 
L 1004.064 461.794382 
L 1007.04 461.496437 
L 1010.016 462.001247 
L 1012.992 464.294097 
L 1015.968 461.856757 
L 1018.944 463.578305 
L 1021.92 463.972592 
L 1024.896 463.773158 
L 1027.872 466.164565 
L 1030.848 462.688027 
L 1033.824 463.364072 
L 1033.824 463.364072 
" clip-path="url(#p542a801a0d)" style="fill: none; stroke-dasharray: 5.55,2.4; stroke-dashoffset: 0; stroke: #eb9b78; stroke-width: 1.5"/>
   </g>
   <g id="patch_8">
    <path d="M 144 512.64 
L 144 69.12 
" style="fill: none; stroke: #000000; stroke-width: 0.8; stroke-linejoin: miter; stroke-linecap: square"/>
   </g>
   <g id="patch_9">
    <path d="M 1036.8 512.64 
L 1036.8 69.12 
" style="fill: none; stroke: #000000; stroke-width: 0.8; stroke-linejoin: miter; stroke-linecap: square"/>
   </g>
   <g id="patch_10">
    <path d="M 144 512.64 
L 1036.8 512.64 
" style="fill: none; stroke: #000000; stroke-width: 0.8; stroke-linejoin: miter; stroke-linecap: square"/>
   </g>
   <g id="patch_11">
    <path d="M 144 69.12 
L 1036.8 69.12 
" style="fill: none; stroke: #000000; stroke-width: 0.8; stroke-linejoin: miter; stroke-linecap: square"/>
   </g>
  </g>
 </g>
 <defs>
  <clipPath id="p542a801a0d">
   <rect x="144" y="69.12" width="892.8" height="443.52"/>
  </clipPath>
 </defs>
</svg>
